<?xml version="1.0" encoding="UTF-8"?><svg xmlns="http://www.w3.org/2000/svg" xmlns:xlink="http://www.w3.org/1999/xlink" contentStyleType="text/css" height="559px" preserveAspectRatio="none" style="width:1322px;height:559px;background:#FFFFFF;" version="1.1" viewBox="0 0 1322 559" width="1322px" zoomAndPan="magnify">
    <defs/>
    <g>
        <!--cluster ManageUsers-->
        <g id="cluster_ManageUsers">
            <rect fill="none" height="315" rx="2.5" ry="2.5" style="stroke:#000000;stroke-width:1.5;" width="123" x="7" y="7"/>
            <text fill="#000000" font-family="sans-serif" font-size="14" font-weight="bold" lengthAdjust="spacing" textLength="107" x="15" y="21.9951">ManageUsers</text>
        </g>
        <!--cluster Inventory-->
        <g id="cluster_Inventory">
            <rect fill="none" height="207" rx="2.5" ry="2.5" style="stroke:#000000;stroke-width:1.5;" width="104" x="321" y="346"/>
            <text fill="#000000" font-family="sans-serif" font-size="14" font-weight="bold" lengthAdjust="spacing" textLength="75" x="335.5" y="360.9951">Inventory</text>
        </g>
        <!--cluster AccountsReceivable-->
        <g id="cluster_AccountsReceivable">
            <rect fill="none" height="315" rx="2.5" ry="2.5" style="stroke:#000000;stroke-width:1.5;" width="265" x="1051" y="7"/>
            <text fill="#000000" font-family="sans-serif" font-size="14" font-weight="bold" lengthAdjust="spacing" textLength="159" x="1104" y="21.9951">AccountsReceivable</text>
        </g>
        <!--cluster AccountsPayable-->
        <g id="cluster_AccountsPayable">
            <rect fill="none" height="207" rx="2.5" ry="2.5" style="stroke:#000000;stroke-width:1.5;" width="309" x="154" y="115"/>
            <text fill="#000000" font-family="sans-serif" font-size="14" font-weight="bold" lengthAdjust="spacing" textLength="135" x="241" y="129.9951">AccountsPayable</text>
        </g>
        <!--cluster Finance-->
        <g id="cluster_Finance">
            <rect fill="none" height="99" rx="2.5" ry="2.5" style="stroke:#000000;stroke-width:1.5;" width="540" x="487" y="223"/>
            <text fill="#000000" font-family="sans-serif" font-size="14" font-weight="bold" lengthAdjust="spacing" textLength="61" x="726.5" y="237.9951">Finance</text>
        </g>
        <!--class Role-->
        <g id="elem_Role">
            <rect codeLine="4" fill="#F1F1F1" height="48" id="Role" rx="2.5" ry="2.5" style="stroke:#181818;stroke-width:0.5;" width="63" x="36.5" y="42"/>
            <ellipse cx="51.5" cy="58" fill="#EB937F" rx="11" ry="11" style="stroke:#181818;stroke-width:1.0;"/>
            <path d="M55.6094,64 L47.8906,64 L47.8906,51.6094 L55.6094,51.6094 L55.6094,53.7656 L50.3438,53.7656 L50.3438,56.4375 L55.1094,56.4375 L55.1094,58.5938 L50.3438,58.5938 L50.3438,61.8438 L55.6094,61.8438 L55.6094,64 Z " fill="#000000"/>
            <text fill="#000000" font-family="sans-serif" font-size="14" lengthAdjust="spacing" textLength="31" x="65.5" y="62.8467">Role</text>
            <line style="stroke:#181818;stroke-width:0.5;" x1="37.5" x2="98.5" y1="74" y2="74"/>
            <line style="stroke:#181818;stroke-width:0.5;" x1="37.5" x2="98.5" y1="82" y2="82"/>
        </g>
        <!--class user-->
        <g id="elem_user">
            <rect codeLine="5" fill="#F1F1F1" height="48" id="user" rx="2.5" ry="2.5" style="stroke:#181818;stroke-width:0.5;" width="63" x="36.5" y="150"/>
            <ellipse cx="51.5" cy="166" fill="#ADD1B2" rx="11" ry="11" style="stroke:#181818;stroke-width:1.0;"/>
            <path d="M54.4688,171.6406 Q53.8906,171.9375 53.25,172.0781 Q52.6094,172.2344 51.9063,172.2344 Q49.4063,172.2344 48.0781,170.5938 Q46.7656,168.9375 46.7656,165.8125 Q46.7656,162.6875 48.0781,161.0313 Q49.4063,159.375 51.9063,159.375 Q52.6094,159.375 53.25,159.5313 Q53.9063,159.6875 54.4688,159.9844 L54.4688,162.7031 Q53.8438,162.125 53.25,161.8594 Q52.6563,161.5781 52.0313,161.5781 Q50.6875,161.5781 50,162.6563 Q49.3125,163.7188 49.3125,165.8125 Q49.3125,167.9063 50,168.9844 Q50.6875,170.0469 52.0313,170.0469 Q52.6563,170.0469 53.25,169.7813 Q53.8438,169.5 54.4688,168.9219 L54.4688,171.6406 Z " fill="#000000"/>
            <text fill="#000000" font-family="sans-serif" font-size="14" lengthAdjust="spacing" textLength="31" x="65.5" y="170.8467">user</text>
            <line style="stroke:#181818;stroke-width:0.5;" x1="37.5" x2="98.5" y1="182" y2="182"/>
            <line style="stroke:#181818;stroke-width:0.5;" x1="37.5" x2="98.5" y1="190" y2="190"/>
        </g>
        <!--class audit-->
        <g id="elem_audit">
            <rect codeLine="6" fill="#F1F1F1" height="48" id="audit" rx="2.5" ry="2.5" style="stroke:#181818;stroke-width:0.5;" width="66" x="35" y="258"/>
            <ellipse cx="50" cy="274" fill="#ADD1B2" rx="11" ry="11" style="stroke:#181818;stroke-width:1.0;"/>
            <path d="M52.9688,279.6406 Q52.3906,279.9375 51.75,280.0781 Q51.1094,280.2344 50.4063,280.2344 Q47.9063,280.2344 46.5781,278.5938 Q45.2656,276.9375 45.2656,273.8125 Q45.2656,270.6875 46.5781,269.0313 Q47.9063,267.375 50.4063,267.375 Q51.1094,267.375 51.75,267.5313 Q52.4063,267.6875 52.9688,267.9844 L52.9688,270.7031 Q52.3438,270.125 51.75,269.8594 Q51.1563,269.5781 50.5313,269.5781 Q49.1875,269.5781 48.5,270.6563 Q47.8125,271.7188 47.8125,273.8125 Q47.8125,275.9063 48.5,276.9844 Q49.1875,278.0469 50.5313,278.0469 Q51.1563,278.0469 51.75,277.7813 Q52.3438,277.5 52.9688,276.9219 L52.9688,279.6406 Z " fill="#000000"/>
            <text fill="#000000" font-family="sans-serif" font-size="14" lengthAdjust="spacing" textLength="34" x="64" y="278.8467">audit</text>
            <line style="stroke:#181818;stroke-width:0.5;" x1="36" x2="100" y1="290" y2="290"/>
            <line style="stroke:#181818;stroke-width:0.5;" x1="36" x2="100" y1="298" y2="298"/>
        </g>
        <!--class Items-->
        <g id="elem_Items">
            <rect codeLine="10" fill="#F1F1F1" height="48" id="Items" rx="2.5" ry="2.5" style="stroke:#181818;stroke-width:0.5;" width="70" x="339" y="381"/>
            <ellipse cx="354" cy="397" fill="#ADD1B2" rx="11" ry="11" style="stroke:#181818;stroke-width:1.0;"/>
            <path d="M356.9688,402.6406 Q356.3906,402.9375 355.75,403.0781 Q355.1094,403.2344 354.4063,403.2344 Q351.9063,403.2344 350.5781,401.5938 Q349.2656,399.9375 349.2656,396.8125 Q349.2656,393.6875 350.5781,392.0313 Q351.9063,390.375 354.4063,390.375 Q355.1094,390.375 355.75,390.5313 Q356.4063,390.6875 356.9688,390.9844 L356.9688,393.7031 Q356.3438,393.125 355.75,392.8594 Q355.1563,392.5781 354.5313,392.5781 Q353.1875,392.5781 352.5,393.6563 Q351.8125,394.7188 351.8125,396.8125 Q351.8125,398.9063 352.5,399.9844 Q353.1875,401.0469 354.5313,401.0469 Q355.1563,401.0469 355.75,400.7813 Q356.3438,400.5 356.9688,399.9219 L356.9688,402.6406 Z " fill="#000000"/>
            <text fill="#000000" font-family="sans-serif" font-size="14" lengthAdjust="spacing" textLength="38" x="368" y="401.8467">Items</text>
            <line style="stroke:#181818;stroke-width:0.5;" x1="340" x2="408" y1="413" y2="413"/>
            <line style="stroke:#181818;stroke-width:0.5;" x1="340" x2="408" y1="421" y2="421"/>
        </g>
        <!--class Stock-->
        <g id="elem_Stock">
            <rect codeLine="11" fill="#F1F1F1" height="48" id="Stock" rx="2.5" ry="2.5" style="stroke:#181818;stroke-width:0.5;" width="71" x="337.5" y="489"/>
            <ellipse cx="352.5" cy="505" fill="#ADD1B2" rx="11" ry="11" style="stroke:#181818;stroke-width:1.0;"/>
            <path d="M355.4688,510.6406 Q354.8906,510.9375 354.25,511.0781 Q353.6094,511.2344 352.9063,511.2344 Q350.4063,511.2344 349.0781,509.5938 Q347.7656,507.9375 347.7656,504.8125 Q347.7656,501.6875 349.0781,500.0313 Q350.4063,498.375 352.9063,498.375 Q353.6094,498.375 354.25,498.5313 Q354.9063,498.6875 355.4688,498.9844 L355.4688,501.7031 Q354.8438,501.125 354.25,500.8594 Q353.6563,500.5781 353.0313,500.5781 Q351.6875,500.5781 351,501.6563 Q350.3125,502.7188 350.3125,504.8125 Q350.3125,506.9063 351,507.9844 Q351.6875,509.0469 353.0313,509.0469 Q353.6563,509.0469 354.25,508.7813 Q354.8438,508.5 355.4688,507.9219 L355.4688,510.6406 Z " fill="#000000"/>
            <text fill="#000000" font-family="sans-serif" font-size="14" lengthAdjust="spacing" textLength="39" x="366.5" y="509.8467">Stock</text>
            <line style="stroke:#181818;stroke-width:0.5;" x1="338.5" x2="407.5" y1="521" y2="521"/>
            <line style="stroke:#181818;stroke-width:0.5;" x1="338.5" x2="407.5" y1="529" y2="529"/>
        </g>
        <!--class Billing-->
        <g id="elem_Billing">
            <rect codeLine="15" fill="#F1F1F1" height="48" id="Billing" rx="2.5" ry="2.5" style="stroke:#181818;stroke-width:0.5;" width="72" x="1076" y="150"/>
            <ellipse cx="1091" cy="166" fill="#ADD1B2" rx="11" ry="11" style="stroke:#181818;stroke-width:1.0;"/>
            <path d="M1093.9688,171.6406 Q1093.3906,171.9375 1092.75,172.0781 Q1092.1094,172.2344 1091.4063,172.2344 Q1088.9063,172.2344 1087.5781,170.5938 Q1086.2656,168.9375 1086.2656,165.8125 Q1086.2656,162.6875 1087.5781,161.0313 Q1088.9063,159.375 1091.4063,159.375 Q1092.1094,159.375 1092.75,159.5313 Q1093.4063,159.6875 1093.9688,159.9844 L1093.9688,162.7031 Q1093.3438,162.125 1092.75,161.8594 Q1092.1563,161.5781 1091.5313,161.5781 Q1090.1875,161.5781 1089.5,162.6563 Q1088.8125,163.7188 1088.8125,165.8125 Q1088.8125,167.9063 1089.5,168.9844 Q1090.1875,170.0469 1091.5313,170.0469 Q1092.1563,170.0469 1092.75,169.7813 Q1093.3438,169.5 1093.9688,168.9219 L1093.9688,171.6406 Z " fill="#000000"/>
            <text fill="#000000" font-family="sans-serif" font-size="14" lengthAdjust="spacing" textLength="40" x="1105" y="170.8467">Billing</text>
            <line style="stroke:#181818;stroke-width:0.5;" x1="1077" x2="1147" y1="182" y2="182"/>
            <line style="stroke:#181818;stroke-width:0.5;" x1="1077" x2="1147" y1="190" y2="190"/>
        </g>
        <!--class BillingDetails-->
        <g id="elem_BillingDetails">
            <rect codeLine="16" fill="#F1F1F1" height="48" id="BillingDetails" rx="2.5" ry="2.5" style="stroke:#181818;stroke-width:0.5;" width="119" x="1067.5" y="258"/>
            <ellipse cx="1082.5" cy="274" fill="#ADD1B2" rx="11" ry="11" style="stroke:#181818;stroke-width:1.0;"/>
            <path d="M1085.4688,279.6406 Q1084.8906,279.9375 1084.25,280.0781 Q1083.6094,280.2344 1082.9063,280.2344 Q1080.4063,280.2344 1079.0781,278.5938 Q1077.7656,276.9375 1077.7656,273.8125 Q1077.7656,270.6875 1079.0781,269.0313 Q1080.4063,267.375 1082.9063,267.375 Q1083.6094,267.375 1084.25,267.5313 Q1084.9063,267.6875 1085.4688,267.9844 L1085.4688,270.7031 Q1084.8438,270.125 1084.25,269.8594 Q1083.6563,269.5781 1083.0313,269.5781 Q1081.6875,269.5781 1081,270.6563 Q1080.3125,271.7188 1080.3125,273.8125 Q1080.3125,275.9063 1081,276.9844 Q1081.6875,278.0469 1083.0313,278.0469 Q1083.6563,278.0469 1084.25,277.7813 Q1084.8438,277.5 1085.4688,276.9219 L1085.4688,279.6406 Z " fill="#000000"/>
            <text fill="#000000" font-family="sans-serif" font-size="14" lengthAdjust="spacing" textLength="87" x="1096.5" y="278.8467">BillingDetails</text>
            <line style="stroke:#181818;stroke-width:0.5;" x1="1068.5" x2="1185.5" y1="290" y2="290"/>
            <line style="stroke:#181818;stroke-width:0.5;" x1="1068.5" x2="1185.5" y1="298" y2="298"/>
        </g>
        <!--class Customers-->
        <g id="elem_Customers">
            <rect codeLine="17" fill="#F1F1F1" height="48" id="Customers" rx="2.5" ry="2.5" style="stroke:#181818;stroke-width:0.5;" width="108" x="1067" y="42"/>
            <ellipse cx="1082" cy="58" fill="#ADD1B2" rx="11" ry="11" style="stroke:#181818;stroke-width:1.0;"/>
            <path d="M1084.9688,63.6406 Q1084.3906,63.9375 1083.75,64.0781 Q1083.1094,64.2344 1082.4063,64.2344 Q1079.9063,64.2344 1078.5781,62.5938 Q1077.2656,60.9375 1077.2656,57.8125 Q1077.2656,54.6875 1078.5781,53.0313 Q1079.9063,51.375 1082.4063,51.375 Q1083.1094,51.375 1083.75,51.5313 Q1084.4063,51.6875 1084.9688,51.9844 L1084.9688,54.7031 Q1084.3438,54.125 1083.75,53.8594 Q1083.1563,53.5781 1082.5313,53.5781 Q1081.1875,53.5781 1080.5,54.6563 Q1079.8125,55.7188 1079.8125,57.8125 Q1079.8125,59.9063 1080.5,60.9844 Q1081.1875,62.0469 1082.5313,62.0469 Q1083.1563,62.0469 1083.75,61.7813 Q1084.3438,61.5 1084.9688,60.9219 L1084.9688,63.6406 Z " fill="#000000"/>
            <text fill="#000000" font-family="sans-serif" font-size="14" lengthAdjust="spacing" textLength="76" x="1096" y="62.8467">Customers</text>
            <line style="stroke:#181818;stroke-width:0.5;" x1="1068" x2="1174" y1="74" y2="74"/>
            <line style="stroke:#181818;stroke-width:0.5;" x1="1068" x2="1174" y1="82" y2="82"/>
        </g>
        <!--class Sellers-->
        <g id="elem_Sellers">
            <rect codeLine="18" fill="#F1F1F1" height="48" id="Sellers" rx="2.5" ry="2.5" style="stroke:#181818;stroke-width:0.5;" width="78" x="1222" y="258"/>
            <ellipse cx="1237" cy="274" fill="#ADD1B2" rx="11" ry="11" style="stroke:#181818;stroke-width:1.0;"/>
            <path d="M1239.9688,279.6406 Q1239.3906,279.9375 1238.75,280.0781 Q1238.1094,280.2344 1237.4063,280.2344 Q1234.9063,280.2344 1233.5781,278.5938 Q1232.2656,276.9375 1232.2656,273.8125 Q1232.2656,270.6875 1233.5781,269.0313 Q1234.9063,267.375 1237.4063,267.375 Q1238.1094,267.375 1238.75,267.5313 Q1239.4063,267.6875 1239.9688,267.9844 L1239.9688,270.7031 Q1239.3438,270.125 1238.75,269.8594 Q1238.1563,269.5781 1237.5313,269.5781 Q1236.1875,269.5781 1235.5,270.6563 Q1234.8125,271.7188 1234.8125,273.8125 Q1234.8125,275.9063 1235.5,276.9844 Q1236.1875,278.0469 1237.5313,278.0469 Q1238.1563,278.0469 1238.75,277.7813 Q1239.3438,277.5 1239.9688,276.9219 L1239.9688,279.6406 Z " fill="#000000"/>
            <text fill="#000000" font-family="sans-serif" font-size="14" lengthAdjust="spacing" textLength="46" x="1251" y="278.8467">Sellers</text>
            <line style="stroke:#181818;stroke-width:0.5;" x1="1223" x2="1299" y1="290" y2="290"/>
            <line style="stroke:#181818;stroke-width:0.5;" x1="1223" x2="1299" y1="298" y2="298"/>
        </g>
        <!--class Suppliers-->
        <g id="elem_Suppliers">
            <rect codeLine="22" fill="#F1F1F1" height="48" id="Suppliers" rx="2.5" ry="2.5" style="stroke:#181818;stroke-width:0.5;" width="96" x="170" y="258"/>
            <ellipse cx="185" cy="274" fill="#ADD1B2" rx="11" ry="11" style="stroke:#181818;stroke-width:1.0;"/>
            <path d="M187.9688,279.6406 Q187.3906,279.9375 186.75,280.0781 Q186.1094,280.2344 185.4063,280.2344 Q182.9063,280.2344 181.5781,278.5938 Q180.2656,276.9375 180.2656,273.8125 Q180.2656,270.6875 181.5781,269.0313 Q182.9063,267.375 185.4063,267.375 Q186.1094,267.375 186.75,267.5313 Q187.4063,267.6875 187.9688,267.9844 L187.9688,270.7031 Q187.3438,270.125 186.75,269.8594 Q186.1563,269.5781 185.5313,269.5781 Q184.1875,269.5781 183.5,270.6563 Q182.8125,271.7188 182.8125,273.8125 Q182.8125,275.9063 183.5,276.9844 Q184.1875,278.0469 185.5313,278.0469 Q186.1563,278.0469 186.75,277.7813 Q187.3438,277.5 187.9688,276.9219 L187.9688,279.6406 Z " fill="#000000"/>
            <text fill="#000000" font-family="sans-serif" font-size="14" lengthAdjust="spacing" textLength="64" x="199" y="278.8467">Suppliers</text>
            <line style="stroke:#181818;stroke-width:0.5;" x1="171" x2="265" y1="290" y2="290"/>
            <line style="stroke:#181818;stroke-width:0.5;" x1="171" x2="265" y1="298" y2="298"/>
        </g>
        <!--class Shopping-->
        <g id="elem_Shopping">
            <rect codeLine="23" fill="#F1F1F1" height="48" id="Shopping" rx="2.5" ry="2.5" style="stroke:#181818;stroke-width:0.5;" width="98" x="349" y="150"/>
            <ellipse cx="364" cy="166" fill="#ADD1B2" rx="11" ry="11" style="stroke:#181818;stroke-width:1.0;"/>
            <path d="M366.9688,171.6406 Q366.3906,171.9375 365.75,172.0781 Q365.1094,172.2344 364.4063,172.2344 Q361.9063,172.2344 360.5781,170.5938 Q359.2656,168.9375 359.2656,165.8125 Q359.2656,162.6875 360.5781,161.0313 Q361.9063,159.375 364.4063,159.375 Q365.1094,159.375 365.75,159.5313 Q366.4063,159.6875 366.9688,159.9844 L366.9688,162.7031 Q366.3438,162.125 365.75,161.8594 Q365.1563,161.5781 364.5313,161.5781 Q363.1875,161.5781 362.5,162.6563 Q361.8125,163.7188 361.8125,165.8125 Q361.8125,167.9063 362.5,168.9844 Q363.1875,170.0469 364.5313,170.0469 Q365.1563,170.0469 365.75,169.7813 Q366.3438,169.5 366.9688,168.9219 L366.9688,171.6406 Z " fill="#000000"/>
            <text fill="#000000" font-family="sans-serif" font-size="14" lengthAdjust="spacing" textLength="66" x="378" y="170.8467">Shopping</text>
            <line style="stroke:#181818;stroke-width:0.5;" x1="350" x2="446" y1="182" y2="182"/>
            <line style="stroke:#181818;stroke-width:0.5;" x1="350" x2="446" y1="190" y2="190"/>
        </g>
        <!--class ShoppingDetails-->
        <g id="elem_ShoppingDetails">
            <rect codeLine="24" fill="#F1F1F1" height="48" id="ShoppingDetails" rx="2.5" ry="2.5" style="stroke:#181818;stroke-width:0.5;" width="145" x="301.5" y="258"/>
            <ellipse cx="316.5" cy="274" fill="#ADD1B2" rx="11" ry="11" style="stroke:#181818;stroke-width:1.0;"/>
            <path d="M319.4688,279.6406 Q318.8906,279.9375 318.25,280.0781 Q317.6094,280.2344 316.9063,280.2344 Q314.4063,280.2344 313.0781,278.5938 Q311.7656,276.9375 311.7656,273.8125 Q311.7656,270.6875 313.0781,269.0313 Q314.4063,267.375 316.9063,267.375 Q317.6094,267.375 318.25,267.5313 Q318.9063,267.6875 319.4688,267.9844 L319.4688,270.7031 Q318.8438,270.125 318.25,269.8594 Q317.6563,269.5781 317.0313,269.5781 Q315.6875,269.5781 315,270.6563 Q314.3125,271.7188 314.3125,273.8125 Q314.3125,275.9063 315,276.9844 Q315.6875,278.0469 317.0313,278.0469 Q317.6563,278.0469 318.25,277.7813 Q318.8438,277.5 319.4688,276.9219 L319.4688,279.6406 Z " fill="#000000"/>
            <text fill="#000000" font-family="sans-serif" font-size="14" lengthAdjust="spacing" textLength="113" x="330.5" y="278.8467">ShoppingDetails</text>
            <line style="stroke:#181818;stroke-width:0.5;" x1="302.5" x2="445.5" y1="290" y2="290"/>
            <line style="stroke:#181818;stroke-width:0.5;" x1="302.5" x2="445.5" y1="298" y2="298"/>
        </g>
        <!--class Bank-->
        <g id="elem_Bank">
            <rect codeLine="28" fill="#F1F1F1" height="48" id="Bank" rx="2.5" ry="2.5" style="stroke:#181818;stroke-width:0.5;" width="67" x="683.5" y="258"/>
            <ellipse cx="698.5" cy="274" fill="#ADD1B2" rx="11" ry="11" style="stroke:#181818;stroke-width:1.0;"/>
            <path d="M701.4688,279.6406 Q700.8906,279.9375 700.25,280.0781 Q699.6094,280.2344 698.9063,280.2344 Q696.4063,280.2344 695.0781,278.5938 Q693.7656,276.9375 693.7656,273.8125 Q693.7656,270.6875 695.0781,269.0313 Q696.4063,267.375 698.9063,267.375 Q699.6094,267.375 700.25,267.5313 Q700.9063,267.6875 701.4688,267.9844 L701.4688,270.7031 Q700.8438,270.125 700.25,269.8594 Q699.6563,269.5781 699.0313,269.5781 Q697.6875,269.5781 697,270.6563 Q696.3125,271.7188 696.3125,273.8125 Q696.3125,275.9063 697,276.9844 Q697.6875,278.0469 699.0313,278.0469 Q699.6563,278.0469 700.25,277.7813 Q700.8438,277.5 701.4688,276.9219 L701.4688,279.6406 Z " fill="#000000"/>
            <text fill="#000000" font-family="sans-serif" font-size="14" lengthAdjust="spacing" textLength="35" x="712.5" y="278.8467">Bank</text>
            <line style="stroke:#181818;stroke-width:0.5;" x1="684.5" x2="749.5" y1="290" y2="290"/>
            <line style="stroke:#181818;stroke-width:0.5;" x1="684.5" x2="749.5" y1="298" y2="298"/>
        </g>
        <!--class Taxes-->
        <g id="elem_Taxes">
            <rect codeLine="29" fill="#F1F1F1" height="48" id="Taxes" rx="2.5" ry="2.5" style="stroke:#181818;stroke-width:0.5;" width="73" x="785.5" y="258"/>
            <ellipse cx="800.5" cy="274" fill="#ADD1B2" rx="11" ry="11" style="stroke:#181818;stroke-width:1.0;"/>
            <path d="M803.4688,279.6406 Q802.8906,279.9375 802.25,280.0781 Q801.6094,280.2344 800.9063,280.2344 Q798.4063,280.2344 797.0781,278.5938 Q795.7656,276.9375 795.7656,273.8125 Q795.7656,270.6875 797.0781,269.0313 Q798.4063,267.375 800.9063,267.375 Q801.6094,267.375 802.25,267.5313 Q802.9063,267.6875 803.4688,267.9844 L803.4688,270.7031 Q802.8438,270.125 802.25,269.8594 Q801.6563,269.5781 801.0313,269.5781 Q799.6875,269.5781 799,270.6563 Q798.3125,271.7188 798.3125,273.8125 Q798.3125,275.9063 799,276.9844 Q799.6875,278.0469 801.0313,278.0469 Q801.6563,278.0469 802.25,277.7813 Q802.8438,277.5 803.4688,276.9219 L803.4688,279.6406 Z " fill="#000000"/>
            <text fill="#000000" font-family="sans-serif" font-size="14" lengthAdjust="spacing" textLength="41" x="814.5" y="278.8467">Taxes</text>
            <line style="stroke:#181818;stroke-width:0.5;" x1="786.5" x2="857.5" y1="290" y2="290"/>
            <line style="stroke:#181818;stroke-width:0.5;" x1="786.5" x2="857.5" y1="298" y2="298"/>
        </g>
        <!--class SalesLedger-->
        <g id="elem_SalesLedger">
            <rect codeLine="30" fill="#F1F1F1" height="48" id="SalesLedger" rx="2.5" ry="2.5" style="stroke:#181818;stroke-width:0.5;" width="117" x="893.5" y="258"/>
            <ellipse cx="908.5" cy="274" fill="#ADD1B2" rx="11" ry="11" style="stroke:#181818;stroke-width:1.0;"/>
            <path d="M911.4688,279.6406 Q910.8906,279.9375 910.25,280.0781 Q909.6094,280.2344 908.9063,280.2344 Q906.4063,280.2344 905.0781,278.5938 Q903.7656,276.9375 903.7656,273.8125 Q903.7656,270.6875 905.0781,269.0313 Q906.4063,267.375 908.9063,267.375 Q909.6094,267.375 910.25,267.5313 Q910.9063,267.6875 911.4688,267.9844 L911.4688,270.7031 Q910.8438,270.125 910.25,269.8594 Q909.6563,269.5781 909.0313,269.5781 Q907.6875,269.5781 907,270.6563 Q906.3125,271.7188 906.3125,273.8125 Q906.3125,275.9063 907,276.9844 Q907.6875,278.0469 909.0313,278.0469 Q909.6563,278.0469 910.25,277.7813 Q910.8438,277.5 911.4688,276.9219 L911.4688,279.6406 Z " fill="#000000"/>
            <text fill="#000000" font-family="sans-serif" font-size="14" lengthAdjust="spacing" textLength="85" x="922.5" y="278.8467">SalesLedger</text>
            <line style="stroke:#181818;stroke-width:0.5;" x1="894.5" x2="1009.5" y1="290" y2="290"/>
            <line style="stroke:#181818;stroke-width:0.5;" x1="894.5" x2="1009.5" y1="298" y2="298"/>
        </g>
        <!--class PurchaseLedger-->
        <g id="elem_PurchaseLedger">
            <rect codeLine="31" fill="#F1F1F1" height="48" id="PurchaseLedger" rx="2.5" ry="2.5" style="stroke:#181818;stroke-width:0.5;" width="145" x="503.5" y="258"/>
            <ellipse cx="518.5" cy="274" fill="#ADD1B2" rx="11" ry="11" style="stroke:#181818;stroke-width:1.0;"/>
            <path d="M521.4688,279.6406 Q520.8906,279.9375 520.25,280.0781 Q519.6094,280.2344 518.9063,280.2344 Q516.4063,280.2344 515.0781,278.5938 Q513.7656,276.9375 513.7656,273.8125 Q513.7656,270.6875 515.0781,269.0313 Q516.4063,267.375 518.9063,267.375 Q519.6094,267.375 520.25,267.5313 Q520.9063,267.6875 521.4688,267.9844 L521.4688,270.7031 Q520.8438,270.125 520.25,269.8594 Q519.6563,269.5781 519.0313,269.5781 Q517.6875,269.5781 517,270.6563 Q516.3125,271.7188 516.3125,273.8125 Q516.3125,275.9063 517,276.9844 Q517.6875,278.0469 519.0313,278.0469 Q519.6563,278.0469 520.25,277.7813 Q520.8438,277.5 521.4688,276.9219 L521.4688,279.6406 Z " fill="#000000"/>
            <text fill="#000000" font-family="sans-serif" font-size="14" lengthAdjust="spacing" textLength="113" x="532.5" y="278.8467">PurchaseLedger</text>
            <line style="stroke:#181818;stroke-width:0.5;" x1="504.5" x2="647.5" y1="290" y2="290"/>
            <line style="stroke:#181818;stroke-width:0.5;" x1="504.5" x2="647.5" y1="298" y2="298"/>
        </g>
        <!--link Role to user-->
        <g id="link_Role_user">
            <path codeLine="34" d="M68,90 C68,107.66 68,131.94 68,149.68 " fill="none" id="Role-user" style="stroke:#181818;stroke-width:1.0;"/>
        </g>
        <!--link user to audit-->
        <g id="link_user_audit">
            <path codeLine="35" d="M68,198 C68,215.66 68,231.94 68,249.68 " fill="none" id="user-to-audit" style="stroke:#181818;stroke-width:1.0;"/>
            <line style="stroke:#181818;stroke-width:1.0;" x1="68" x2="76" y1="249.68" y2="257.68"/>
            <line style="stroke:#181818;stroke-width:1.0;" x1="68" x2="60" y1="249.68" y2="257.68"/>
            <line style="stroke:#181818;stroke-width:1.0;" x1="68" x2="68" y1="249.68" y2="257.68"/>
        </g>
        <!--link Items to Stock-->
        <g id="link_Items_Stock">
            <path codeLine="37" d="M373.78,429 C373.62,446.66 373.39,470.94 373.22,488.68 " fill="none" id="Items-Stock" style="stroke:#181818;stroke-width:1.0;"/>
        </g>
        <!--link Suppliers to Stock-->
        <g id="link_Suppliers_Stock">
            <path codeLine="38" d="M233.72,306.22 C263.42,350.11 323.0159,438.1548 352.7559,482.0948 " fill="none" id="Suppliers-to-Stock" style="stroke:#181818;stroke-width:1.0;"/>
            <line style="stroke:#181818;stroke-width:1.0;" x1="352.7559" x2="363.8652" y1="482.0948" y2="488.72"/>
            <line style="stroke:#181818;stroke-width:1.0;" x1="352.7559" x2="350.6148" y1="482.0948" y2="488.72"/>
            <line style="stroke:#181818;stroke-width:1.0;" x1="352.7559" x2="357.24" y1="482.0948" y2="488.72"/>
        </g>
        <!--link Billing to Sellers-->
        <g id="link_Billing_Sellers">
            <path codeLine="40" d="M1148.05,186.39 C1165.9,193.05 1187.17,202.61 1204,215 C1220.1,226.84 1234.75,244.02 1245.17,257.88 " fill="none" id="Billing-Sellers" style="stroke:#181818;stroke-width:1.0;"/>
        </g>
        <!--link Customers to Billing-->
        <g id="link_Customers_Billing">
            <path codeLine="41" d="M1119.05,90 C1117.55,107.66 1116.1685,123.9688 1114.6585,141.7088 " fill="none" id="Customers-to-Billing" style="stroke:#181818;stroke-width:1.0;"/>
            <line style="stroke:#181818;stroke-width:1.0;" x1="1114.6585" x2="1121.9512" y1="141.7088" y2="149.68"/>
            <line style="stroke:#181818;stroke-width:1.0;" x1="1114.6585" x2="1106.0088" y1="141.7088" y2="149.68"/>
            <line style="stroke:#181818;stroke-width:1.0;" x1="1114.6585" x2="1113.98" y1="141.7088" y2="149.68"/>
        </g>
        <!--link Billing to BillingDetails-->
        <g id="link_Billing_BillingDetails">
            <path codeLine="42" d="M1115.25,198 C1117.75,215.66 1121.19,239.94 1123.7,257.68 " fill="none" id="Billing-BillingDetails" style="stroke:#181818;stroke-width:1.0;"/>
        </g>
        <!--link BillingDetails to Items-->
        <g id="link_BillingDetails_Items">
            <path codeLine="43" d="M1085.85,306.06 C1068.23,314.93 1047.12,324.3 1027,330 C797.85,394.93 516.2197,403.103 417.1097,403.933 " fill="none" id="BillingDetails-to-Items" style="stroke:#181818;stroke-width:1.0;"/>
            <line style="stroke:#181818;stroke-width:1.0;" x1="417.1097" x2="409.11" y1="403.933" y2="411.9997"/>
            <line style="stroke:#181818;stroke-width:1.0;" x1="417.1097" x2="409.11" y1="403.933" y2="396.0003"/>
            <line style="stroke:#181818;stroke-width:1.0;" x1="417.1097" x2="409.11" y1="403.933" y2="404"/>
        </g>
        <!--link Billing to Taxes-->
        <g id="link_Billing_Taxes">
            <path codeLine="44" d="M1075.75,178.02 C1018.27,183.33 909.32,195.63 876,215 C858.59,225.12 848.7733,236.3852 839.3333,251.0352 " fill="none" id="Billing-to-Taxes" style="stroke:#181818;stroke-width:1.0;"/>
            <line style="stroke:#181818;stroke-width:1.0;" x1="839.3333" x2="841.7248" y1="251.0352" y2="257.76"/>
            <line style="stroke:#181818;stroke-width:1.0;" x1="839.3333" x2="828.2752" y1="251.0352" y2="257.76"/>
            <line style="stroke:#181818;stroke-width:1.0;" x1="839.3333" x2="835" y1="251.0352" y2="257.76"/>
        </g>
        <!--link Billing to Bank-->
        <g id="link_Billing_Bank">
            <path codeLine="45" d="M1075.89,175.7 C998.61,177.74 820.02,185.61 768,215 C750.73,224.76 737.34,242.98 728.62,257.8 " fill="none" id="Billing-Bank" style="stroke:#181818;stroke-width:1.0;"/>
        </g>
        <!--link Billing to SalesLedger-->
        <g id="link_Billing_SalesLedger">
            <path codeLine="46" d="M1076.81,198.01 C1068.35,203.56 1059.35,209.48 1051,215 C1029.63,229.13 1005.74,245.05 986.78,257.72 " fill="none" id="Billing-SalesLedger" style="stroke:#181818;stroke-width:1.0;"/>
        </g>
        <!--reverse link Shopping to Suppliers-->
        <g id="link_Shopping_Suppliers">
            <path codeLine="48" d="M341.3098,189.2799 C320.3198,195.6999 303.8,202.55 284,215 C265.76,226.47 248.65,243.84 236.43,257.88 " fill="none" id="Shopping-backto-Suppliers" style="stroke:#181818;stroke-width:1.0;"/>
            <line style="stroke:#181818;stroke-width:1.0;" x1="341.3098" x2="348.96" y1="189.2799" y2="179.2898"/>
            <line style="stroke:#181818;stroke-width:1.0;" x1="341.3098" x2="348.96" y1="189.2799" y2="194.5902"/>
            <line style="stroke:#181818;stroke-width:1.0;" x1="341.3098" x2="348.96" y1="189.2799" y2="186.94"/>
        </g>
        <!--link Shopping to ShoppingDetails-->
        <g id="link_Shopping_ShoppingDetails">
            <path codeLine="49" d="M392.79,198 C388.79,215.66 385.068,232.1378 381.048,249.8778 " fill="none" id="Shopping-to-ShoppingDetails" style="stroke:#181818;stroke-width:1.0;"/>
            <line style="stroke:#181818;stroke-width:1.0;" x1="381.048" x2="387.0822" y1="249.8778" y2="257.68"/>
            <line style="stroke:#181818;stroke-width:1.0;" x1="381.048" x2="371.4778" y1="249.8778" y2="257.68"/>
            <line style="stroke:#181818;stroke-width:1.0;" x1="381.048" x2="379.28" y1="249.8778" y2="257.68"/>
        </g>
        <!--link ShoppingDetails to Items-->
        <g id="link_ShoppingDetails_Items">
            <path codeLine="50" d="M374,306.04 C374,327.44 374,351.13 374,372.63 " fill="none" id="ShoppingDetails-to-Items" style="stroke:#181818;stroke-width:1.0;"/>
            <line style="stroke:#181818;stroke-width:1.0;" x1="374" x2="382" y1="372.63" y2="380.63"/>
            <line style="stroke:#181818;stroke-width:1.0;" x1="374" x2="366" y1="372.63" y2="380.63"/>
            <line style="stroke:#181818;stroke-width:1.0;" x1="374" x2="374" y1="372.63" y2="380.63"/>
        </g>
        <!--link Shopping to Taxes-->
        <g id="link_Shopping_Taxes">
            <path codeLine="51" d="M447.3,175.75 C534.95,177.83 713.81,185.65 768,215 C785.83,224.66 795.7895,236.1088 805.1395,250.9688 " fill="none" id="Shopping-to-Taxes" style="stroke:#181818;stroke-width:1.0;"/>
            <line style="stroke:#181818;stroke-width:1.0;" x1="805.1395" x2="816.1712" y1="250.9688" y2="257.74"/>
            <line style="stroke:#181818;stroke-width:1.0;" x1="805.1395" x2="802.6288" y1="250.9688" y2="257.74"/>
            <line style="stroke:#181818;stroke-width:1.0;" x1="805.1395" x2="809.4" y1="250.9688" y2="257.74"/>
        </g>
        <!--link Shopping to Bank-->
        <g id="link_Shopping_Bank">
            <path codeLine="52" d="M447.14,177.96 C514.1,182.72 629.84,193.79 666,215 C683.11,225.04 696.51,243.23 705.28,257.98 " fill="none" id="Shopping-Bank" style="stroke:#181818;stroke-width:1.0;"/>
        </g>
        <!--link Shopping to PurchaseLedger-->
        <g id="link_Shopping_PurchaseLedger">
            <path codeLine="53" d="M436.62,198 C466.38,215.72 507.33,240.11 537.15,257.86 " fill="none" id="Shopping-PurchaseLedger" style="stroke:#181818;stroke-width:1.0;"/>
        </g>
        <!--SRC=[RLDDRzim3BthL_3O7bAaMJQiFcrfcg5PWWRvkhCobmgH9SEIZ0L1__lepoZ1BhP8llT8Filkg4oE1MQGeppYWJR-f0aAaXxDGPCGRHwMQFYrSrGuE0io8OErPO3Kw1m4phT73AdoulF2V3Kb6M-B4_CQoAkdpBNdZRVo6CD_Icc3yMvDabI9xpnEnviehPKvN4TJygXq9_SSdBSP3zd9azPLz9y6Apmrwj1XGvvh5N4_R9vV-dLXrp2Id2c3HaPI4pJ7zhZ5lzGheYQteFJGkxKAXVn0HssIDIjNOJ1eBAqU79nRLqNjN5LjREidhZ5DJhI-rAXs-zwL6jVP605llBmEQrBJEUAScytWIgPQE-uVxIiw_-2pglHUz-bwXHkFR-BB9DUqnkCerKmI9swC5k87cJHaGgmq6hzRBg3aQPGryFWm6ew-F3oExcQ5WZVfOJI4uLCoVag-Zc7_ieMgVY_kVgqMu2ph4gJA-KAz1yy2zsAE9SAQxvZAA86tdCny-hjBm8ifLM5DnZ-5cE-N5y2tyM2YF7-qWaU1_L9CwGy6xPaXRSfx9B3RpWRVnOB_pS3tBW4ouhcwpCM9Qvj_]-->
    </g>
</svg>
