<?xml version="1.0" encoding="UTF-8"?><svg xmlns="http://www.w3.org/2000/svg" xmlns:xlink="http://www.w3.org/1999/xlink" contentStyleType="text/css" height="623px" preserveAspectRatio="none" style="width:1208px;height:623px;background:#FFFFFF;" version="1.1" viewBox="0 0 1208 623" width="1208px" zoomAndPan="magnify">
    <defs/>
    <g>
        <!--cluster Inventory-->
        <g id="cluster_Inventory">
            <rect fill="none" height="610" rx="2.5" ry="2.5" style="stroke:#000000;stroke-width:1.5;" width="1195" x="7" y="7"/>
            <text fill="#000000" font-family="sans-serif" font-size="14" font-weight="bold" lengthAdjust="spacing" textLength="75" x="567" y="21.9951">Inventory</text>
        </g>
        <!--cluster Item-->
        <g id="cluster_Item">
            <rect fill="none" height="543" rx="2.5" ry="2.5" style="stroke:#000000;stroke-width:1.5;" width="455" x="317" y="50"/>
            <text fill="#000000" font-family="sans-serif" font-size="14" font-weight="bold" lengthAdjust="spacing" textLength="34" x="527.5" y="64.9951">Item</text>
        </g>
        <!--cluster AccountsReceivable-->
        <g id="cluster_AccountsReceivable">
            <rect fill="none" height="518.5" rx="2.5" ry="2.5" style="stroke:#000000;stroke-width:1.5;" width="382" x="796" y="58"/>
            <text fill="#000000" font-family="sans-serif" font-size="14" font-weight="bold" lengthAdjust="spacing" textLength="159" x="907.5" y="72.9951">AccountsReceivable</text>
        </g>
        <!--cluster AccountsPayable-->
        <g id="cluster_AccountsPayable">
            <rect fill="none" height="518.5" rx="2.5" ry="2.5" style="stroke:#000000;stroke-width:1.5;" width="262" x="31" y="58"/>
            <text fill="#000000" font-family="sans-serif" font-size="14" font-weight="bold" lengthAdjust="spacing" textLength="135" x="94.5" y="72.9951">AccountsPayable</text>
        </g>
        <!--class Items-->
        <g id="elem_Items">
            <rect codeLine="37" fill="#F1F1F1" height="96.8906" id="Items" rx="2.5" ry="2.5" style="stroke:#181818;stroke-width:0.5;" width="157" x="378.5" y="258"/>
            <ellipse cx="433.75" cy="274" fill="#ADD1B2" rx="11" ry="11" style="stroke:#181818;stroke-width:1.0;"/>
            <path d="M436.7188,279.6406 Q436.1406,279.9375 435.5,280.0781 Q434.8594,280.2344 434.1563,280.2344 Q431.6563,280.2344 430.3281,278.5938 Q429.0156,276.9375 429.0156,273.8125 Q429.0156,270.6875 430.3281,269.0313 Q431.6563,267.375 434.1563,267.375 Q434.8594,267.375 435.5,267.5313 Q436.1563,267.6875 436.7188,267.9844 L436.7188,270.7031 Q436.0938,270.125 435.5,269.8594 Q434.9063,269.5781 434.2813,269.5781 Q432.9375,269.5781 432.25,270.6563 Q431.5625,271.7188 431.5625,273.8125 Q431.5625,275.9063 432.25,276.9844 Q432.9375,278.0469 434.2813,278.0469 Q434.9063,278.0469 435.5,277.7813 Q436.0938,277.5 436.7188,276.9219 L436.7188,279.6406 Z " fill="#000000"/>
            <text fill="#000000" font-family="sans-serif" font-size="14" lengthAdjust="spacing" textLength="38" x="454.25" y="278.8467">Items</text>
            <line style="stroke:#181818;stroke-width:0.5;" x1="379.5" x2="534.5" y1="290" y2="290"/>
            <rect fill="none" height="6" style="stroke:#C82930;stroke-width:1.0;" width="6" x="386.5" y="300.6484"/>
            <text fill="#000000" font-family="sans-serif" font-size="14" font-weight="bold" lengthAdjust="spacing" textLength="126" x="403.5" y="306.9951">Integer id &lt;PK&gt;</text>
            <rect fill="none" height="6" style="stroke:#C82930;stroke-width:1.0;" width="6" x="386.5" y="316.9453"/>
            <text fill="#000000" font-family="sans-serif" font-size="14" lengthAdjust="spacing" textLength="121" x="398.5" y="323.292">String description</text>
            <rect fill="none" height="6" style="stroke:#C82930;stroke-width:1.0;" width="6" x="386.5" y="333.2422"/>
            <text fill="#000000" font-family="sans-serif" font-size="14" lengthAdjust="spacing" textLength="125" x="398.5" y="339.5889">Integer categoryId</text>
            <line style="stroke:#181818;stroke-width:0.5;" x1="379.5" x2="534.5" y1="346.8906" y2="346.8906"/>
        </g>
        <!--class Category-->
        <g id="elem_Category">
            <rect codeLine="43" fill="#F1F1F1" height="80.5938" id="Category" rx="2.5" ry="2.5" style="stroke:#181818;stroke-width:0.5;" width="157" x="570.5" y="266"/>
            <ellipse cx="613.85" cy="282" fill="#ADD1B2" rx="11" ry="11" style="stroke:#181818;stroke-width:1.0;"/>
            <path d="M616.8188,287.6406 Q616.2406,287.9375 615.6,288.0781 Q614.9594,288.2344 614.2563,288.2344 Q611.7563,288.2344 610.4281,286.5938 Q609.1156,284.9375 609.1156,281.8125 Q609.1156,278.6875 610.4281,277.0313 Q611.7563,275.375 614.2563,275.375 Q614.9594,275.375 615.6,275.5313 Q616.2563,275.6875 616.8188,275.9844 L616.8188,278.7031 Q616.1938,278.125 615.6,277.8594 Q615.0063,277.5781 614.3813,277.5781 Q613.0375,277.5781 612.35,278.6563 Q611.6625,279.7188 611.6625,281.8125 Q611.6625,283.9063 612.35,284.9844 Q613.0375,286.0469 614.3813,286.0469 Q615.0063,286.0469 615.6,285.7813 Q616.1938,285.5 616.8188,284.9219 L616.8188,287.6406 Z " fill="#000000"/>
            <text fill="#000000" font-family="sans-serif" font-size="14" lengthAdjust="spacing" textLength="62" x="634.15" y="286.8467">Category</text>
            <line style="stroke:#181818;stroke-width:0.5;" x1="571.5" x2="726.5" y1="298" y2="298"/>
            <rect fill="none" height="6" style="stroke:#C82930;stroke-width:1.0;" width="6" x="578.5" y="308.6484"/>
            <text fill="#000000" font-family="sans-serif" font-size="14" font-weight="bold" lengthAdjust="spacing" textLength="126" x="595.5" y="314.9951">Integer id &lt;PK&gt;</text>
            <rect fill="none" height="6" style="stroke:#C82930;stroke-width:1.0;" width="6" x="578.5" y="324.9453"/>
            <text fill="#000000" font-family="sans-serif" font-size="14" lengthAdjust="spacing" textLength="121" x="590.5" y="331.292">String description</text>
            <line style="stroke:#181818;stroke-width:0.5;" x1="571.5" x2="726.5" y1="338.5938" y2="338.5938"/>
        </g>
        <!--class ItemCategory-->
        <g id="elem_ItemCategory">
            <rect codeLine="48" fill="#F1F1F1" height="145.7813" id="ItemCategory" rx="2.5" ry="2.5" style="stroke:#181818;stroke-width:0.5;" width="199" x="427.5" y="431"/>
            <ellipse cx="476.75" cy="447" fill="#ADD1B2" rx="11" ry="11" style="stroke:#181818;stroke-width:1.0;"/>
            <path d="M479.7188,452.6406 Q479.1406,452.9375 478.5,453.0781 Q477.8594,453.2344 477.1563,453.2344 Q474.6563,453.2344 473.3281,451.5938 Q472.0156,449.9375 472.0156,446.8125 Q472.0156,443.6875 473.3281,442.0313 Q474.6563,440.375 477.1563,440.375 Q477.8594,440.375 478.5,440.5313 Q479.1563,440.6875 479.7188,440.9844 L479.7188,443.7031 Q479.0938,443.125 478.5,442.8594 Q477.9063,442.5781 477.2813,442.5781 Q475.9375,442.5781 475.25,443.6563 Q474.5625,444.7188 474.5625,446.8125 Q474.5625,448.9063 475.25,449.9844 Q475.9375,451.0469 477.2813,451.0469 Q477.9063,451.0469 478.5,450.7813 Q479.0938,450.5 479.7188,449.9219 L479.7188,452.6406 Z " fill="#000000"/>
            <text fill="#000000" font-family="sans-serif" font-size="14" lengthAdjust="spacing" textLength="92" x="497.25" y="451.8467">ItemCategory</text>
            <line style="stroke:#181818;stroke-width:0.5;" x1="428.5" x2="625.5" y1="463" y2="463"/>
            <rect fill="none" height="6" style="stroke:#C82930;stroke-width:1.0;" width="6" x="435.5" y="473.6484"/>
            <text fill="#000000" font-family="sans-serif" font-size="14" font-weight="bold" lengthAdjust="spacing" textLength="157" x="452.5" y="479.9951">Integer rowId &lt;PK&gt;</text>
            <rect fill="none" height="6" style="stroke:#C82930;stroke-width:1.0;" width="6" x="435.5" y="489.9453"/>
            <text fill="#000000" font-family="sans-serif" font-size="14" lengthAdjust="spacing" textLength="95" x="447.5" y="496.292">Integer itemId</text>
            <rect fill="none" height="6" style="stroke:#C82930;stroke-width:1.0;" width="6" x="435.5" y="506.2422"/>
            <text fill="#000000" font-family="sans-serif" font-size="14" lengthAdjust="spacing" textLength="125" x="447.5" y="512.5889">Integer categoryId</text>
            <line style="stroke:#181818;stroke-width:1.0;" x1="428.5" x2="625.5" y1="519.8906" y2="519.8906"/>
            <ellipse cx="438.5" cy="533.5391" fill="#000000" rx="3" ry="3" style="stroke:#000000;stroke-width:1.0;"/>
            <text fill="#000000" font-family="sans-serif" font-size="14" lengthAdjust="spacing" textLength="143" x="447.5" y="536.8857">itemId : integer «FK»</text>
            <ellipse cx="438.5" cy="549.8359" fill="#000000" rx="3" ry="3" style="stroke:#000000;stroke-width:1.0;"/>
            <text fill="#000000" font-family="sans-serif" font-size="14" lengthAdjust="spacing" textLength="173" x="447.5" y="553.1826">categoryId : integer «FK»</text>
            <text fill="#000000" font-family="sans-serif" font-size="14" lengthAdjust="spacing" textLength="4" x="447.5" y="569.4795"> </text>
        </g>
        <!--class ItemStock-->
        <g id="elem_ItemStock">
            <rect codeLine="58" fill="#F1F1F1" height="96.8906" id="ItemStock" rx="2.5" ry="2.5" style="stroke:#181818;stroke-width:0.5;" width="196" x="560" y="85"/>
            <ellipse cx="619.25" cy="101" fill="#ADD1B2" rx="11" ry="11" style="stroke:#181818;stroke-width:1.0;"/>
            <path d="M622.2188,106.6406 Q621.6406,106.9375 621,107.0781 Q620.3594,107.2344 619.6563,107.2344 Q617.1563,107.2344 615.8281,105.5938 Q614.5156,103.9375 614.5156,100.8125 Q614.5156,97.6875 615.8281,96.0313 Q617.1563,94.375 619.6563,94.375 Q620.3594,94.375 621,94.5313 Q621.6563,94.6875 622.2188,94.9844 L622.2188,97.7031 Q621.5938,97.125 621,96.8594 Q620.4063,96.5781 619.7813,96.5781 Q618.4375,96.5781 617.75,97.6563 Q617.0625,98.7188 617.0625,100.8125 Q617.0625,102.9063 617.75,103.9844 Q618.4375,105.0469 619.7813,105.0469 Q620.4063,105.0469 621,104.7813 Q621.5938,104.5 622.2188,103.9219 L622.2188,106.6406 Z " fill="#000000"/>
            <text fill="#000000" font-family="sans-serif" font-size="14" lengthAdjust="spacing" textLength="69" x="639.75" y="105.8467">ItemStock</text>
            <line style="stroke:#181818;stroke-width:0.5;" x1="561" x2="755" y1="117" y2="117"/>
            <rect fill="none" height="6" style="stroke:#C82930;stroke-width:1.0;" width="6" x="568" y="127.6484"/>
            <text fill="#000000" font-family="sans-serif" font-size="14" font-weight="bold" lengthAdjust="spacing" textLength="165" x="585" y="133.9951">Integer itemId  &lt;PK&gt;</text>
            <rect fill="none" height="6" style="stroke:#C82930;stroke-width:1.0;" width="6" x="568" y="143.9453"/>
            <text fill="#000000" font-family="sans-serif" font-size="14" lengthAdjust="spacing" textLength="108" x="580" y="150.292">Integer quantity</text>
            <line style="stroke:#181818;stroke-width:1.0;" x1="561" x2="755" y1="157.5938" y2="157.5938"/>
            <ellipse cx="571" cy="171.2422" fill="#000000" rx="3" ry="3" style="stroke:#000000;stroke-width:1.0;"/>
            <text fill="#000000" font-family="sans-serif" font-size="14" lengthAdjust="spacing" textLength="143" x="580" y="174.5889">itemId : integer «FK»</text>
        </g>
        <!--class ItemPrice-->
        <g id="elem_ItemPrice">
            <rect codeLine="65" fill="#F1F1F1" height="96.8906" id="ItemPrice" rx="2.5" ry="2.5" style="stroke:#181818;stroke-width:0.5;" width="191" x="333.5" y="85"/>
            <ellipse cx="392.75" cy="101" fill="#ADD1B2" rx="11" ry="11" style="stroke:#181818;stroke-width:1.0;"/>
            <path d="M395.7188,106.6406 Q395.1406,106.9375 394.5,107.0781 Q393.8594,107.2344 393.1563,107.2344 Q390.6563,107.2344 389.3281,105.5938 Q388.0156,103.9375 388.0156,100.8125 Q388.0156,97.6875 389.3281,96.0313 Q390.6563,94.375 393.1563,94.375 Q393.8594,94.375 394.5,94.5313 Q395.1563,94.6875 395.7188,94.9844 L395.7188,97.7031 Q395.0938,97.125 394.5,96.8594 Q393.9063,96.5781 393.2813,96.5781 Q391.9375,96.5781 391.25,97.6563 Q390.5625,98.7188 390.5625,100.8125 Q390.5625,102.9063 391.25,103.9844 Q391.9375,105.0469 393.2813,105.0469 Q393.9063,105.0469 394.5,104.7813 Q395.0938,104.5 395.7188,103.9219 L395.7188,106.6406 Z " fill="#000000"/>
            <text fill="#000000" font-family="sans-serif" font-size="14" lengthAdjust="spacing" textLength="64" x="413.25" y="105.8467">ItemPrice</text>
            <line style="stroke:#181818;stroke-width:0.5;" x1="334.5" x2="523.5" y1="117" y2="117"/>
            <rect fill="none" height="6" style="stroke:#C82930;stroke-width:1.0;" width="6" x="341.5" y="127.6484"/>
            <text fill="#000000" font-family="sans-serif" font-size="14" font-weight="bold" lengthAdjust="spacing" textLength="160" x="358.5" y="133.9951">Integer itemId &lt;PK&gt;</text>
            <rect fill="none" height="6" style="stroke:#C82930;stroke-width:1.0;" width="6" x="341.5" y="143.9453"/>
            <text fill="#000000" font-family="sans-serif" font-size="14" lengthAdjust="spacing" textLength="86" x="353.5" y="150.292">double price</text>
            <line style="stroke:#181818;stroke-width:1.0;" x1="334.5" x2="523.5" y1="157.5938" y2="157.5938"/>
            <ellipse cx="344.5" cy="171.2422" fill="#000000" rx="3" ry="3" style="stroke:#000000;stroke-width:1.0;"/>
            <text fill="#000000" font-family="sans-serif" font-size="14" lengthAdjust="spacing" textLength="143" x="353.5" y="174.5889">itemId : integer «FK»</text>
        </g>
        <!--class Customers-->
        <g id="elem_Customers">
            <rect codeLine="79" fill="#F1F1F1" height="80.5938" id="Customers" rx="2.5" ry="2.5" style="stroke:#181818;stroke-width:0.5;" width="157" x="1004.5" y="93"/>
            <ellipse cx="1041.55" cy="109" fill="#ADD1B2" rx="11" ry="11" style="stroke:#181818;stroke-width:1.0;"/>
            <path d="M1044.5188,114.6406 Q1043.9406,114.9375 1043.3,115.0781 Q1042.6594,115.2344 1041.9563,115.2344 Q1039.4563,115.2344 1038.1281,113.5938 Q1036.8156,111.9375 1036.8156,108.8125 Q1036.8156,105.6875 1038.1281,104.0313 Q1039.4563,102.375 1041.9563,102.375 Q1042.6594,102.375 1043.3,102.5313 Q1043.9563,102.6875 1044.5188,102.9844 L1044.5188,105.7031 Q1043.8938,105.125 1043.3,104.8594 Q1042.7063,104.5781 1042.0813,104.5781 Q1040.7375,104.5781 1040.05,105.6563 Q1039.3625,106.7188 1039.3625,108.8125 Q1039.3625,110.9063 1040.05,111.9844 Q1040.7375,113.0469 1042.0813,113.0469 Q1042.7063,113.0469 1043.3,112.7813 Q1043.8938,112.5 1044.5188,111.9219 L1044.5188,114.6406 Z " fill="#000000"/>
            <text fill="#000000" font-family="sans-serif" font-size="14" lengthAdjust="spacing" textLength="76" x="1060.45" y="113.8467">Customers</text>
            <line style="stroke:#181818;stroke-width:0.5;" x1="1005.5" x2="1160.5" y1="125" y2="125"/>
            <rect fill="none" height="6" style="stroke:#C82930;stroke-width:1.0;" width="6" x="1012.5" y="135.6484"/>
            <text fill="#000000" font-family="sans-serif" font-size="14" font-weight="bold" lengthAdjust="spacing" textLength="126" x="1029.5" y="141.9951">Integer id &lt;PK&gt;</text>
            <rect fill="none" height="6" style="stroke:#C82930;stroke-width:1.0;" width="6" x="1012.5" y="151.9453"/>
            <text fill="#000000" font-family="sans-serif" font-size="14" lengthAdjust="spacing" textLength="121" x="1024.5" y="158.292">String description</text>
            <line style="stroke:#181818;stroke-width:0.5;" x1="1005.5" x2="1160.5" y1="165.5938" y2="165.5938"/>
        </g>
        <!--class Sellers-->
        <g id="elem_Sellers">
            <rect codeLine="84" fill="#F1F1F1" height="80.5938" id="Sellers" rx="2.5" ry="2.5" style="stroke:#181818;stroke-width:0.5;" width="157" x="812.5" y="93"/>
            <ellipse cx="863.75" cy="109" fill="#ADD1B2" rx="11" ry="11" style="stroke:#181818;stroke-width:1.0;"/>
            <path d="M866.7188,114.6406 Q866.1406,114.9375 865.5,115.0781 Q864.8594,115.2344 864.1563,115.2344 Q861.6563,115.2344 860.3281,113.5938 Q859.0156,111.9375 859.0156,108.8125 Q859.0156,105.6875 860.3281,104.0313 Q861.6563,102.375 864.1563,102.375 Q864.8594,102.375 865.5,102.5313 Q866.1563,102.6875 866.7188,102.9844 L866.7188,105.7031 Q866.0938,105.125 865.5,104.8594 Q864.9063,104.5781 864.2813,104.5781 Q862.9375,104.5781 862.25,105.6563 Q861.5625,106.7188 861.5625,108.8125 Q861.5625,110.9063 862.25,111.9844 Q862.9375,113.0469 864.2813,113.0469 Q864.9063,113.0469 865.5,112.7813 Q866.0938,112.5 866.7188,111.9219 L866.7188,114.6406 Z " fill="#000000"/>
            <text fill="#000000" font-family="sans-serif" font-size="14" lengthAdjust="spacing" textLength="46" x="884.25" y="113.8467">Sellers</text>
            <line style="stroke:#181818;stroke-width:0.5;" x1="813.5" x2="968.5" y1="125" y2="125"/>
            <rect fill="none" height="6" style="stroke:#C82930;stroke-width:1.0;" width="6" x="820.5" y="135.6484"/>
            <text fill="#000000" font-family="sans-serif" font-size="14" font-weight="bold" lengthAdjust="spacing" textLength="126" x="837.5" y="141.9951">Integer id &lt;PK&gt;</text>
            <rect fill="none" height="6" style="stroke:#C82930;stroke-width:1.0;" width="6" x="820.5" y="151.9453"/>
            <text fill="#000000" font-family="sans-serif" font-size="14" lengthAdjust="spacing" textLength="121" x="832.5" y="158.292">String description</text>
            <line style="stroke:#181818;stroke-width:0.5;" x1="813.5" x2="968.5" y1="165.5938" y2="165.5938"/>
        </g>
        <!--class Billing-->
        <g id="elem_Billing">
            <rect codeLine="89" fill="#F1F1F1" height="129.4844" id="Billing" rx="2.5" ry="2.5" style="stroke:#181818;stroke-width:0.5;" width="205" x="811.5" y="242"/>
            <ellipse cx="889.75" cy="258" fill="#ADD1B2" rx="11" ry="11" style="stroke:#181818;stroke-width:1.0;"/>
            <path d="M892.7188,263.6406 Q892.1406,263.9375 891.5,264.0781 Q890.8594,264.2344 890.1563,264.2344 Q887.6563,264.2344 886.3281,262.5938 Q885.0156,260.9375 885.0156,257.8125 Q885.0156,254.6875 886.3281,253.0313 Q887.6563,251.375 890.1563,251.375 Q890.8594,251.375 891.5,251.5313 Q892.1563,251.6875 892.7188,251.9844 L892.7188,254.7031 Q892.0938,254.125 891.5,253.8594 Q890.9063,253.5781 890.2813,253.5781 Q888.9375,253.5781 888.25,254.6563 Q887.5625,255.7188 887.5625,257.8125 Q887.5625,259.9063 888.25,260.9844 Q888.9375,262.0469 890.2813,262.0469 Q890.9063,262.0469 891.5,261.7813 Q892.0938,261.5 892.7188,260.9219 L892.7188,263.6406 Z " fill="#000000"/>
            <text fill="#000000" font-family="sans-serif" font-size="14" lengthAdjust="spacing" textLength="40" x="910.25" y="262.8467">Billing</text>
            <line style="stroke:#181818;stroke-width:0.5;" x1="812.5" x2="1015.5" y1="274" y2="274"/>
            <rect fill="none" height="6" style="stroke:#C82930;stroke-width:1.0;" width="6" x="819.5" y="284.6484"/>
            <text fill="#000000" font-family="sans-serif" font-size="14" font-weight="bold" lengthAdjust="spacing" textLength="126" x="836.5" y="290.9951">Integer id &lt;PK&gt;</text>
            <rect fill="none" height="6" style="stroke:#C82930;stroke-width:1.0;" width="6" x="819.5" y="300.9453"/>
            <text fill="#000000" font-family="sans-serif" font-size="14" lengthAdjust="spacing" textLength="131" x="831.5" y="307.292">Integer customerId</text>
            <rect fill="none" height="6" style="stroke:#C82930;stroke-width:1.0;" width="6" x="819.5" y="317.2422"/>
            <text fill="#000000" font-family="sans-serif" font-size="14" lengthAdjust="spacing" textLength="102" x="831.5" y="323.5889">Integer sellerId</text>
            <line style="stroke:#181818;stroke-width:1.0;" x1="812.5" x2="1015.5" y1="330.8906" y2="330.8906"/>
            <ellipse cx="822.5" cy="344.5391" fill="#000000" rx="3" ry="3" style="stroke:#000000;stroke-width:1.0;"/>
            <text fill="#000000" font-family="sans-serif" font-size="14" lengthAdjust="spacing" textLength="179" x="831.5" y="347.8857">customerId : integer «FK»</text>
            <ellipse cx="822.5" cy="360.8359" fill="#000000" rx="3" ry="3" style="stroke:#000000;stroke-width:1.0;"/>
            <text fill="#000000" font-family="sans-serif" font-size="14" lengthAdjust="spacing" textLength="150" x="831.5" y="364.1826">sellerId : integer «FK»</text>
        </g>
        <!--class BillingDetails-->
        <g id="elem_BillingDetails">
            <rect codeLine="98" fill="#F1F1F1" height="113.1875" id="BillingDetails" rx="2.5" ry="2.5" style="stroke:#181818;stroke-width:0.5;" width="203" x="811.5" y="447.5"/>
            <ellipse cx="865.25" cy="463.5" fill="#ADD1B2" rx="11" ry="11" style="stroke:#181818;stroke-width:1.0;"/>
            <path d="M868.2188,469.1406 Q867.6406,469.4375 867,469.5781 Q866.3594,469.7344 865.6563,469.7344 Q863.1563,469.7344 861.8281,468.0938 Q860.5156,466.4375 860.5156,463.3125 Q860.5156,460.1875 861.8281,458.5313 Q863.1563,456.875 865.6563,456.875 Q866.3594,456.875 867,457.0313 Q867.6563,457.1875 868.2188,457.4844 L868.2188,460.2031 Q867.5938,459.625 867,459.3594 Q866.4063,459.0781 865.7813,459.0781 Q864.4375,459.0781 863.75,460.1563 Q863.0625,461.2188 863.0625,463.3125 Q863.0625,465.4063 863.75,466.4844 Q864.4375,467.5469 865.7813,467.5469 Q866.4063,467.5469 867,467.2813 Q867.5938,467 868.2188,466.4219 L868.2188,469.1406 Z " fill="#000000"/>
            <text fill="#000000" font-family="sans-serif" font-size="14" lengthAdjust="spacing" textLength="87" x="885.75" y="468.3467">BillingDetails</text>
            <line style="stroke:#181818;stroke-width:0.5;" x1="812.5" x2="1013.5" y1="479.5" y2="479.5"/>
            <rect fill="none" height="6" style="stroke:#C82930;stroke-width:1.0;" width="6" x="819.5" y="490.1484"/>
            <text fill="#000000" font-family="sans-serif" font-size="14" font-weight="bold" lengthAdjust="spacing" textLength="172" x="836.5" y="496.4951">Integer billingId &lt;PK&gt;</text>
            <rect fill="none" height="6" style="stroke:#C82930;stroke-width:1.0;" width="6" x="819.5" y="506.4453"/>
            <text fill="#000000" font-family="sans-serif" font-size="14" lengthAdjust="spacing" textLength="95" x="831.5" y="512.792">Integer itemId</text>
            <line style="stroke:#181818;stroke-width:1.0;" x1="812.5" x2="1013.5" y1="520.0938" y2="520.0938"/>
            <ellipse cx="822.5" cy="533.7422" fill="#000000" rx="3" ry="3" style="stroke:#000000;stroke-width:1.0;"/>
            <text fill="#000000" font-family="sans-serif" font-size="14" lengthAdjust="spacing" textLength="152" x="831.5" y="537.0889">billingId : integer «FK»</text>
            <ellipse cx="822.5" cy="550.0391" fill="#000000" rx="3" ry="3" style="stroke:#000000;stroke-width:1.0;"/>
            <text fill="#000000" font-family="sans-serif" font-size="14" lengthAdjust="spacing" textLength="143" x="831.5" y="553.3857">itemId : integer «FK»</text>
        </g>
        <!--class Suppliers-->
        <g id="elem_Suppliers">
            <rect codeLine="113" fill="#F1F1F1" height="80.5938" id="Suppliers" rx="2.5" ry="2.5" style="stroke:#181818;stroke-width:0.5;" width="157" x="83.5" y="93"/>
            <ellipse cx="125.95" cy="109" fill="#ADD1B2" rx="11" ry="11" style="stroke:#181818;stroke-width:1.0;"/>
            <path d="M128.9188,114.6406 Q128.3406,114.9375 127.7,115.0781 Q127.0594,115.2344 126.3563,115.2344 Q123.8563,115.2344 122.5281,113.5938 Q121.2156,111.9375 121.2156,108.8125 Q121.2156,105.6875 122.5281,104.0313 Q123.8563,102.375 126.3563,102.375 Q127.0594,102.375 127.7,102.5313 Q128.3563,102.6875 128.9188,102.9844 L128.9188,105.7031 Q128.2938,105.125 127.7,104.8594 Q127.1063,104.5781 126.4813,104.5781 Q125.1375,104.5781 124.45,105.6563 Q123.7625,106.7188 123.7625,108.8125 Q123.7625,110.9063 124.45,111.9844 Q125.1375,113.0469 126.4813,113.0469 Q127.1063,113.0469 127.7,112.7813 Q128.2938,112.5 128.9188,111.9219 L128.9188,114.6406 Z " fill="#000000"/>
            <text fill="#000000" font-family="sans-serif" font-size="14" lengthAdjust="spacing" textLength="64" x="146.05" y="113.8467">Suppliers</text>
            <line style="stroke:#181818;stroke-width:0.5;" x1="84.5" x2="239.5" y1="125" y2="125"/>
            <rect fill="none" height="6" style="stroke:#C82930;stroke-width:1.0;" width="6" x="91.5" y="135.6484"/>
            <text fill="#000000" font-family="sans-serif" font-size="14" font-weight="bold" lengthAdjust="spacing" textLength="126" x="108.5" y="141.9951">Integer id &lt;PK&gt;</text>
            <rect fill="none" height="6" style="stroke:#C82930;stroke-width:1.0;" width="6" x="91.5" y="151.9453"/>
            <text fill="#000000" font-family="sans-serif" font-size="14" lengthAdjust="spacing" textLength="121" x="103.5" y="158.292">String description</text>
            <line style="stroke:#181818;stroke-width:0.5;" x1="84.5" x2="239.5" y1="165.5938" y2="165.5938"/>
        </g>
        <!--class Shopping-->
        <g id="elem_Shopping">
            <rect codeLine="118" fill="#F1F1F1" height="96.8906" id="Shopping" rx="2.5" ry="2.5" style="stroke:#181818;stroke-width:0.5;" width="194" x="65" y="258"/>
            <ellipse cx="124.75" cy="274" fill="#ADD1B2" rx="11" ry="11" style="stroke:#181818;stroke-width:1.0;"/>
            <path d="M127.7188,279.6406 Q127.1406,279.9375 126.5,280.0781 Q125.8594,280.2344 125.1563,280.2344 Q122.6563,280.2344 121.3281,278.5938 Q120.0156,276.9375 120.0156,273.8125 Q120.0156,270.6875 121.3281,269.0313 Q122.6563,267.375 125.1563,267.375 Q125.8594,267.375 126.5,267.5313 Q127.1563,267.6875 127.7188,267.9844 L127.7188,270.7031 Q127.0938,270.125 126.5,269.8594 Q125.9063,269.5781 125.2813,269.5781 Q123.9375,269.5781 123.25,270.6563 Q122.5625,271.7188 122.5625,273.8125 Q122.5625,275.9063 123.25,276.9844 Q123.9375,278.0469 125.2813,278.0469 Q125.9063,278.0469 126.5,277.7813 Q127.0938,277.5 127.7188,276.9219 L127.7188,279.6406 Z " fill="#000000"/>
            <text fill="#000000" font-family="sans-serif" font-size="14" lengthAdjust="spacing" textLength="66" x="145.25" y="278.8467">Shopping</text>
            <line style="stroke:#181818;stroke-width:0.5;" x1="66" x2="258" y1="290" y2="290"/>
            <rect fill="none" height="6" style="stroke:#C82930;stroke-width:1.0;" width="6" x="73" y="300.6484"/>
            <text fill="#000000" font-family="sans-serif" font-size="14" font-weight="bold" lengthAdjust="spacing" textLength="126" x="90" y="306.9951">Integer id &lt;PK&gt;</text>
            <rect fill="none" height="6" style="stroke:#C82930;stroke-width:1.0;" width="6" x="73" y="316.9453"/>
            <text fill="#000000" font-family="sans-serif" font-size="14" lengthAdjust="spacing" textLength="120" x="85" y="323.292">Integer supplierId</text>
            <line style="stroke:#181818;stroke-width:1.0;" x1="66" x2="258" y1="330.5938" y2="330.5938"/>
            <ellipse cx="76" cy="344.2422" fill="#000000" rx="3" ry="3" style="stroke:#000000;stroke-width:1.0;"/>
            <text fill="#000000" font-family="sans-serif" font-size="14" lengthAdjust="spacing" textLength="168" x="85" y="347.5889">supplierId : integer «FK»</text>
        </g>
        <!--class ShoppingDetails-->
        <g id="elem_ShoppingDetails">
            <rect codeLine="124" fill="#F1F1F1" height="113.1875" id="ShoppingDetails" rx="2.5" ry="2.5" style="stroke:#181818;stroke-width:0.5;" width="230" x="47" y="447.5"/>
            <ellipse cx="101.25" cy="463.5" fill="#ADD1B2" rx="11" ry="11" style="stroke:#181818;stroke-width:1.0;"/>
            <path d="M104.2188,469.1406 Q103.6406,469.4375 103,469.5781 Q102.3594,469.7344 101.6563,469.7344 Q99.1563,469.7344 97.8281,468.0938 Q96.5156,466.4375 96.5156,463.3125 Q96.5156,460.1875 97.8281,458.5313 Q99.1563,456.875 101.6563,456.875 Q102.3594,456.875 103,457.0313 Q103.6563,457.1875 104.2188,457.4844 L104.2188,460.2031 Q103.5938,459.625 103,459.3594 Q102.4063,459.0781 101.7813,459.0781 Q100.4375,459.0781 99.75,460.1563 Q99.0625,461.2188 99.0625,463.3125 Q99.0625,465.4063 99.75,466.4844 Q100.4375,467.5469 101.7813,467.5469 Q102.4063,467.5469 103,467.2813 Q103.5938,467 104.2188,466.4219 L104.2188,469.1406 Z " fill="#000000"/>
            <text fill="#000000" font-family="sans-serif" font-size="14" lengthAdjust="spacing" textLength="113" x="121.75" y="468.3467">ShoppingDetails</text>
            <line style="stroke:#181818;stroke-width:0.5;" x1="48" x2="276" y1="479.5" y2="479.5"/>
            <rect fill="none" height="6" style="stroke:#C82930;stroke-width:1.0;" width="6" x="55" y="490.1484"/>
            <text fill="#000000" font-family="sans-serif" font-size="14" font-weight="bold" lengthAdjust="spacing" textLength="199" x="72" y="496.4951">Integer shoppingId &lt;PK&gt;</text>
            <rect fill="none" height="6" style="stroke:#C82930;stroke-width:1.0;" width="6" x="55" y="506.4453"/>
            <text fill="#000000" font-family="sans-serif" font-size="14" lengthAdjust="spacing" textLength="95" x="67" y="512.792">Integer itemId</text>
            <line style="stroke:#181818;stroke-width:1.0;" x1="48" x2="276" y1="520.0938" y2="520.0938"/>
            <ellipse cx="58" cy="533.7422" fill="#000000" rx="3" ry="3" style="stroke:#000000;stroke-width:1.0;"/>
            <text fill="#000000" font-family="sans-serif" font-size="14" lengthAdjust="spacing" textLength="178" x="67" y="537.0889">shoppingId : integer «FK»</text>
            <ellipse cx="58" cy="550.0391" fill="#000000" rx="3" ry="3" style="stroke:#000000;stroke-width:1.0;"/>
            <text fill="#000000" font-family="sans-serif" font-size="14" lengthAdjust="spacing" textLength="143" x="67" y="553.3857">itemId : integer «FK»</text>
        </g>
        <!--link Category to ItemCategory-->
        <g id="link_Category_ItemCategory">
            <path codeLine="72" d="M620.0748,353.847 C605.1048,377.837 599.3078,387.1185 581.6578,415.4085 " fill="none" id="Category-ItemCategory" style="stroke:#181818;stroke-width:1.0;"/>
            <line style="stroke:#181818;stroke-width:1.0;" x1="618.7989" x2="625.5859" y1="348.3359" y2="352.5711"/>
            <line style="stroke:#181818;stroke-width:1.0;" x1="617.2107" x2="623.9977" y1="350.881" y2="355.1162"/>
            <line style="stroke:#181818;stroke-width:1.0;" x1="620.0748" x2="624.31" y1="353.847" y2="347.06"/>
            <line style="stroke:#181818;stroke-width:1.0;" x1="576.3646" x2="577.2205" y1="423.8926" y2="433.8559"/>
            <line style="stroke:#181818;stroke-width:1.0;" x1="576.3646" x2="567.0395" y1="423.8926" y2="427.5041"/>
            <line style="stroke:#181818;stroke-width:1.0;" x1="576.3646" x2="572.13" y1="423.8926" y2="430.68"/>
            <ellipse cx="579.5405" cy="418.8021" fill="none" rx="4" ry="4" style="stroke:#181818;stroke-width:1.0;"/>
        </g>
        <!--link Items to ItemCategory-->
        <g id="link_Items_ItemCategory">
            <path codeLine="73" d="M476.7282,362.6012 C484.8682,385.3212 489.3825,397.9385 498.4225,423.1785 " fill="none" id="Items-ItemCategory" style="stroke:#181818;stroke-width:1.0;"/>
            <line style="stroke:#181818;stroke-width:1.0;" x1="471.6135" x2="479.1447" y1="360.1847" y2="357.4865"/>
            <line style="stroke:#181818;stroke-width:1.0;" x1="472.6254" x2="480.1566" y1="363.009" y2="360.3107"/>
            <line style="stroke:#181818;stroke-width:1.0;" x1="476.7282" x2="474.03" y1="362.6012" y2="355.07"/>
            <line style="stroke:#181818;stroke-width:1.0;" x1="503.537" x2="496.0055" y1="425.5955" y2="428.293"/>
            <line style="stroke:#181818;stroke-width:1.0;" x1="502.5254" x2="494.9939" y1="422.7712" y2="425.4687"/>
            <line style="stroke:#181818;stroke-width:1.0;" x1="498.4225" x2="501.12" y1="423.1785" y2="430.71"/>
        </g>
        <!--link ItemStock to Items-->
        <g id="link_ItemStock_Items">
            <path codeLine="74" d="M595.9171,187.3142 C568.1571,210.9342 546.9028,229.0156 519.1328,252.6456 " fill="none" id="ItemStock-Items" style="stroke:#181818;stroke-width:1.0;"/>
            <line style="stroke:#181818;stroke-width:1.0;" x1="596.3714" x2="601.5557" y1="181.6757" y2="187.7686"/>
            <line style="stroke:#181818;stroke-width:1.0;" x1="594.0866" x2="599.2708" y1="183.6198" y2="189.7127"/>
            <line style="stroke:#181818;stroke-width:1.0;" x1="595.9171" x2="602.01" y1="187.3142" y2="182.13"/>
            <line style="stroke:#181818;stroke-width:1.0;" x1="518.6786" x2="513.4942" y1="258.2842" y2="252.1914"/>
            <line style="stroke:#181818;stroke-width:1.0;" x1="520.9634" x2="515.7789" y1="256.34" y2="250.2472"/>
            <line style="stroke:#181818;stroke-width:1.0;" x1="519.1328" x2="513.04" y1="252.6456" y2="257.83"/>
        </g>
        <!--link ItemPrice to Items-->
        <g id="link_ItemPrice_Items">
            <path codeLine="75" d="M438.0935,190.0247 C441.9635,213.6447 444.0403,226.3046 447.9003,249.9346 " fill="none" id="ItemPrice-Items" style="stroke:#181818;stroke-width:1.0;"/>
            <line style="stroke:#181818;stroke-width:1.0;" x1="433.4994" x2="441.3941" y1="186.7241" y2="185.4306"/>
            <line style="stroke:#181818;stroke-width:1.0;" x1="433.9845" x2="441.8792" y1="189.6846" y2="188.3911"/>
            <line style="stroke:#181818;stroke-width:1.0;" x1="438.0935" x2="436.8" y1="190.0247" y2="182.13"/>
            <line style="stroke:#181818;stroke-width:1.0;" x1="452.4928" x2="444.5975" y1="253.2375" y2="254.5272"/>
            <line style="stroke:#181818;stroke-width:1.0;" x1="452.0092" x2="444.1138" y1="250.2767" y2="251.5664"/>
            <line style="stroke:#181818;stroke-width:1.0;" x1="447.9003" x2="449.19" y1="249.9346" y2="257.83"/>
        </g>
        <!--link Items to BillingDetails-->
        <g id="link_Items_BillingDetails">
            <path codeLine="107" d="M529.9537,359.1963 C539.7037,365.0663 542.99,366.46 553,371 C644.9,412.69 677.9,394.53 772,431 C784.94,436.02 781.9827,434.1969 795.0327,440.3369 " fill="none" id="Items-BillingDetails" style="stroke:#181818;stroke-width:1.0;"/>
            <line style="stroke:#181818;stroke-width:1.0;" x1="524.4637" x2="528.59" y1="360.56" y2="353.7063"/>
            <line style="stroke:#181818;stroke-width:1.0;" x1="527.0339" x2="531.1602" y1="362.1074" y2="355.2536"/>
            <line style="stroke:#181818;stroke-width:1.0;" x1="529.9537" x2="523.1" y1="359.1963" y2="355.07"/>
            <line style="stroke:#181818;stroke-width:1.0;" x1="804.0812" x2="813.8744" y1="444.5942" y2="442.5709"/>
            <line style="stroke:#181818;stroke-width:1.0;" x1="804.0812" x2="808.7656" y1="444.5942" y2="453.4291"/>
            <line style="stroke:#181818;stroke-width:1.0;" x1="804.0812" x2="811.32" y1="444.5942" y2="448"/>
            <ellipse cx="798.6521" cy="442.0398" fill="none" rx="4" ry="4" style="stroke:#181818;stroke-width:1.0;"/>
        </g>
        <!--link Billing to BillingDetails-->
        <g id="link_Billing_BillingDetails">
            <path codeLine="108" d="M913.6308,379.2399 C913.5108,403.7599 913.4505,415.5301 913.3305,439.2401 " fill="none" id="Billing-BillingDetails" style="stroke:#181818;stroke-width:1.0;"/>
            <line style="stroke:#181818;stroke-width:1.0;" x1="909.6505" x2="917.6504" y1="375.2204" y2="375.2595"/>
            <line style="stroke:#181818;stroke-width:1.0;" x1="909.6358" x2="917.6357" y1="378.2203" y2="378.2595"/>
            <line style="stroke:#181818;stroke-width:1.0;" x1="913.6308" x2="913.67" y1="379.2399" y2="371.24"/>
            <line style="stroke:#181818;stroke-width:1.0;" x1="917.3102" x2="909.3103" y1="443.2603" y2="443.2198"/>
            <line style="stroke:#181818;stroke-width:1.0;" x1="917.3254" x2="909.3255" y1="440.2603" y2="440.2198"/>
            <line style="stroke:#181818;stroke-width:1.0;" x1="913.3305" x2="913.29" y1="439.2401" y2="447.24"/>
        </g>
        <!--link Customers to Billing-->
        <g id="link_Customers_Billing">
            <path codeLine="109" d="M1038.1772,179.8507 C1018.2872,199.9807 1011.9116,206.4262 989.4616,229.1462 " fill="none" id="Customers-Billing" style="stroke:#181818;stroke-width:1.0;"/>
            <line style="stroke:#181818;stroke-width:1.0;" x1="1038.1432" x2="1043.8339" y1="174.1939" y2="179.8168"/>
            <line style="stroke:#181818;stroke-width:1.0;" x1="1036.0347" x2="1041.7254" y1="176.3279" y2="181.9508"/>
            <line style="stroke:#181818;stroke-width:1.0;" x1="1038.1772" x2="1043.8" y1="179.8507" y2="174.16"/>
            <line style="stroke:#181818;stroke-width:1.0;" x1="982.4329" x2="981.0779" y1="236.2594" y2="246.1672"/>
            <line style="stroke:#181818;stroke-width:1.0;" x1="982.4329" x2="972.5421" y1="236.2594" y2="237.7328"/>
            <line style="stroke:#181818;stroke-width:1.0;" x1="982.4329" x2="976.81" y1="236.2594" y2="241.95"/>
            <ellipse cx="986.6501" cy="231.9915" fill="none" rx="4" ry="4" style="stroke:#181818;stroke-width:1.0;"/>
        </g>
        <!--link Sellers to Billing-->
        <g id="link_Sellers_Billing">
            <path codeLine="110" d="M897.3974,182.0885 C900.1074,202.2185 900.0051,201.39 903.0551,224.11 " fill="none" id="Sellers-Billing" style="stroke:#181818;stroke-width:1.0;"/>
            <line style="stroke:#181818;stroke-width:1.0;" x1="892.8994" x2="900.8279" y1="178.6579" y2="177.5906"/>
            <line style="stroke:#181818;stroke-width:1.0;" x1="893.2997" x2="901.2282" y1="181.6311" y2="180.5637"/>
            <line style="stroke:#181818;stroke-width:1.0;" x1="897.3974" x2="896.33" y1="182.0885" y2="174.16"/>
            <line style="stroke:#181818;stroke-width:1.0;" x1="904.3856" x2="911.3967" y1="234.0211" y2="241.1517"/>
            <line style="stroke:#181818;stroke-width:1.0;" x1="904.3856" x2="899.5033" y1="234.0211" y2="242.7483"/>
            <line style="stroke:#181818;stroke-width:1.0;" x1="904.3856" x2="905.45" y1="234.0211" y2="241.95"/>
            <ellipse cx="903.5873" cy="228.0745" fill="none" rx="4" ry="4" style="stroke:#181818;stroke-width:1.0;"/>
        </g>
        <!--link Shopping to ShoppingDetails-->
        <g id="link_Shopping_ShoppingDetails">
            <path codeLine="134" d="M162,363.07 C162,390.88 162,410.11 162,439.22 " fill="none" id="Shopping-ShoppingDetails" style="stroke:#181818;stroke-width:1.0;"/>
            <line style="stroke:#181818;stroke-width:1.0;" x1="158" x2="166" y1="359.07" y2="359.07"/>
            <line style="stroke:#181818;stroke-width:1.0;" x1="158" x2="166" y1="362.07" y2="362.07"/>
            <line style="stroke:#181818;stroke-width:1.0;" x1="162" x2="162" y1="363.07" y2="355.07"/>
            <line style="stroke:#181818;stroke-width:1.0;" x1="166" x2="158" y1="443.22" y2="443.22"/>
            <line style="stroke:#181818;stroke-width:1.0;" x1="166" x2="158" y1="440.22" y2="440.22"/>
            <line style="stroke:#181818;stroke-width:1.0;" x1="162" x2="162" y1="439.22" y2="447.22"/>
        </g>
        <!--link Items to ShoppingDetails-->
        <g id="link_Items_ShoppingDetails">
            <path codeLine="135" d="M378.5422,359.4904 C336.5022,387.3604 304.8741,408.3164 260.9041,437.4564 " fill="none" id="Items-ShoppingDetails" style="stroke:#181818;stroke-width:1.0;"/>
            <line style="stroke:#181818;stroke-width:1.0;" x1="379.6659" x2="384.0863" y1="353.9463" y2="360.6141"/>
            <line style="stroke:#181818;stroke-width:1.0;" x1="377.1654" x2="381.5858" y1="355.6039" y2="362.2718"/>
            <line style="stroke:#181818;stroke-width:1.0;" x1="378.5422" x2="385.21" y1="359.4904" y2="355.07"/>
            <line style="stroke:#181818;stroke-width:1.0;" x1="252.5685" x2="249.2145" y1="442.9806" y2="452.4014"/>
            <line style="stroke:#181818;stroke-width:1.0;" x1="252.5685" x2="242.5855" y1="442.9806" y2="442.3986"/>
            <line style="stroke:#181818;stroke-width:1.0;" x1="252.5685" x2="245.9" y1="442.9806" y2="447.4"/>
            <ellipse cx="257.5699" cy="439.6661" fill="none" rx="4" ry="4" style="stroke:#181818;stroke-width:1.0;"/>
        </g>
        <!--link Suppliers to Shopping-->
        <g id="link_Suppliers_Shopping">
            <path codeLine="136" d="M162,182.16 C162,207.12 162,213.48 162,239.84 " fill="none" id="Suppliers-Shopping" style="stroke:#181818;stroke-width:1.0;"/>
            <line style="stroke:#181818;stroke-width:1.0;" x1="158" x2="166" y1="178.16" y2="178.16"/>
            <line style="stroke:#181818;stroke-width:1.0;" x1="158" x2="166" y1="181.16" y2="181.16"/>
            <line style="stroke:#181818;stroke-width:1.0;" x1="162" x2="162" y1="182.16" y2="174.16"/>
            <line style="stroke:#181818;stroke-width:1.0;" x1="162" x2="168" y1="249.84" y2="257.84"/>
            <line style="stroke:#181818;stroke-width:1.0;" x1="162" x2="156" y1="249.84" y2="257.84"/>
            <line style="stroke:#181818;stroke-width:1.0;" x1="162" x2="162" y1="249.84" y2="257.84"/>
            <ellipse cx="162" cy="243.84" fill="none" rx="4" ry="4" style="stroke:#181818;stroke-width:1.0;"/>
        </g>
        <!--SRC=[xLRRKkCu47tNLtJn4iYkfu1bjtPIL6fdk4m5o4wA1Dw5t0CgRDahoPbD1VvzMxRbIwvpuMsJ0Xnr7tUVxZv8CizIfLpp658kdlaZZkqiGj0eB5UF4JBMAHqmv8eUTmQrWJdPKMKnt2Q4dhFEB_3XV3Zustsv6r_Siiuh8KJ4ZO6Ctd2G0EPV94RXAy10MNmagmoRvh7LKZtcUCLZNE5QOqufpTT4juBbn3JzSPJcCTgdXAndYJ9MPy8c-bVuXDQwOhWAOLn-Bu1c_w1P0Sz2QTib_6W5LdDbkB0oKKtlf3PFPYasOMxTWieOZULn2a8ZBmBzH8N5UFQEzY08-lapxrmFdlWKeTy4T8DW3dinLxEziYKU1IvMf_emBvc1cg8Y9ZCdcCfeCNRhehTkvVHK5zZjDheBfwFhVhVBbXePeX5QfddzosCHd9wKTn2oLv_fhBJzPBBN9lDjCNNoTR0YR9MIGX35ZVo3W7LB8FLRbe3JqylhVfyyDNBPs-OwjebuNbjyaM0zrNyohgoqiyryMWb7MWhSad0fNvXa3wI_rBsxDLVL_fUN84ZchP6mGbdEy_Aox2cwqV0QLdDkcIcHb-u78P9CMNEB0kMKF-HxNwckpDWaBlR6Dv7N6AFe3SDzb57adDyHhX9ZMTfAfPgSfjTf3LsbLO_Te9kIvZbQBgErnJyKg6_vrtAiQlWAKklbHQHg3P6wsjoOxsWfbWLlhOVssypFTS6yfB4HdnK20o-8B4qZ-POAUqhIz0SrOKeoliNrUbKds_cs3DUKi6-TRWF_NUDrFrKBoY4kK6pFVz5P3sG1mFBOdOsxHWTQWlTNZGKLULIbfifIogWun3TefxCWdZg09zjPEPsy0dyfX4kfk195G4-Sg-TgCU7_OYCqZz3SO4ZjhcoZJ8idRh0oK_o_K8LPJDqoMs-XxhExLUnk5RjRnUvMiRjLx6uL_zjRHVxh3yvHHDldtV06feIdAS3Hk-F3uz_U7HtlNse9duM5uqCuVDyxUT_x_GJkBoRW_0Ti_zFe1an2Pp92A0sDyo5pOpnWLtpAuPQa8cFimUSKrTNvjJV0XPfAdQYOpbzsTJ-i0N-S11-bfUr54nMu7x9p_CApoD8R8Wc9VG_k9fV1d-o63lIC5Da3LEpCQLBFo3V-3m00]-->
    </g>
</svg>
