<?xml version="1.0" encoding="UTF-8"?><svg xmlns="http://www.w3.org/2000/svg" xmlns:xlink="http://www.w3.org/1999/xlink" contentStyleType="text/css" height="432px" preserveAspectRatio="none" style="width:480px;height:432px;background:#FFFFFF;" version="1.1" viewBox="0 0 480 432" width="480px" zoomAndPan="magnify">
    <defs/>
    <g>
        <!--cluster ManageUsers-->
        <g id="cluster_ManageUsers">
            <rect fill="none" height="419" rx="2.5" ry="2.5" style="stroke:#000000;stroke-width:1.5;" width="467" x="7" y="7"/>
            <text fill="#000000" font-family="sans-serif" font-size="14" font-weight="bold" lengthAdjust="spacing" textLength="107" x="187" y="21.9951">ManageUsers</text>
        </g>
        <!--class Role-->
        <g id="elem_Role">
            <rect codeLine="6" fill="#F1F1F1" height="80.5938" id="Role" rx="2.5" ry="2.5" style="stroke:#181818;stroke-width:0.5;" width="71" x="23.5" y="288.5"/>
            <ellipse cx="42.1" cy="304.5" fill="#EB937F" rx="11" ry="11" style="stroke:#181818;stroke-width:1.0;"/>
            <path d="M46.2094,310.5 L38.4906,310.5 L38.4906,298.1094 L46.2094,298.1094 L46.2094,300.2656 L40.9438,300.2656 L40.9438,302.9375 L45.7094,302.9375 L45.7094,305.0938 L40.9438,305.0938 L40.9438,308.3438 L46.2094,308.3438 L46.2094,310.5 Z " fill="#000000"/>
            <text fill="#000000" font-family="sans-serif" font-size="14" lengthAdjust="spacing" textLength="31" x="56.9" y="309.3467">Role</text>
            <line style="stroke:#181818;stroke-width:0.5;" x1="24.5" x2="93.5" y1="320.5" y2="320.5"/>
            <ellipse cx="34.5" cy="334.1484" fill="none" rx="3" ry="3" style="stroke:#038048;stroke-width:1.0;"/>
            <text fill="#000000" font-family="sans-serif" font-size="14" lengthAdjust="spacing" textLength="45" x="43.5" y="337.4951">ADMIN</text>
            <ellipse cx="34.5" cy="350.4453" fill="none" rx="3" ry="3" style="stroke:#038048;stroke-width:1.0;"/>
            <text fill="#000000" font-family="sans-serif" font-size="14" lengthAdjust="spacing" textLength="38" x="43.5" y="353.792">USER</text>
            <line style="stroke:#181818;stroke-width:0.5;" x1="24.5" x2="93.5" y1="361.0938" y2="361.0938"/>
        </g>
        <!--class user-->
        <g id="elem_user">
            <rect codeLine="11" fill="#F1F1F1" height="145.7813" id="user" rx="2.5" ry="2.5" style="stroke:#181818;stroke-width:0.5;" width="328" x="76" y="42"/>
            <ellipse cx="220.25" cy="58" fill="#ADD1B2" rx="11" ry="11" style="stroke:#181818;stroke-width:1.0;"/>
            <path d="M223.2188,63.6406 Q222.6406,63.9375 222,64.0781 Q221.3594,64.2344 220.6563,64.2344 Q218.1563,64.2344 216.8281,62.5938 Q215.5156,60.9375 215.5156,57.8125 Q215.5156,54.6875 216.8281,53.0313 Q218.1563,51.375 220.6563,51.375 Q221.3594,51.375 222,51.5313 Q222.6563,51.6875 223.2188,51.9844 L223.2188,54.7031 Q222.5938,54.125 222,53.8594 Q221.4063,53.5781 220.7813,53.5781 Q219.4375,53.5781 218.75,54.6563 Q218.0625,55.7188 218.0625,57.8125 Q218.0625,59.9063 218.75,60.9844 Q219.4375,62.0469 220.7813,62.0469 Q221.4063,62.0469 222,61.7813 Q222.5938,61.5 223.2188,60.9219 L223.2188,63.6406 Z " fill="#000000"/>
            <text fill="#000000" font-family="sans-serif" font-size="14" lengthAdjust="spacing" textLength="31" x="240.75" y="62.8467">user</text>
            <line style="stroke:#181818;stroke-width:0.5;" x1="77" x2="403" y1="74" y2="74"/>
            <rect fill="none" height="6" style="stroke:#C82930;stroke-width:1.0;" width="6" x="84" y="84.6484"/>
            <text fill="#000000" font-family="sans-serif" font-size="14" font-weight="bold" lengthAdjust="spacing" textLength="126" x="101" y="90.9951">Integer id &lt;PK&gt;</text>
            <rect fill="none" height="6" style="stroke:#C82930;stroke-width:1.0;" width="6" x="84" y="100.9453"/>
            <text fill="#000000" font-family="sans-serif" font-size="14" lengthAdjust="spacing" textLength="114" x="96" y="107.292">String username</text>
            <rect fill="none" height="6" style="stroke:#C82930;stroke-width:1.0;" width="6" x="84" y="117.2422"/>
            <text fill="#000000" font-family="sans-serif" font-size="14" lengthAdjust="spacing" textLength="83" x="96" y="123.5889">String name</text>
            <rect fill="none" height="6" style="stroke:#C82930;stroke-width:1.0;" width="6" x="84" y="133.5391"/>
            <text fill="#000000" font-family="sans-serif" font-size="14" lengthAdjust="spacing" textLength="111" x="96" y="139.8857">String password</text>
            <rect fill="none" height="6" style="stroke:#C82930;stroke-width:1.0;" width="6" x="84" y="149.8359"/>
            <text fill="#000000" font-family="sans-serif" font-size="14" lengthAdjust="spacing" textLength="61" x="96" y="156.1826">Role role</text>
            <line style="stroke:#181818;stroke-width:0.5;" x1="77" x2="403" y1="163.4844" y2="163.4844"/>
            <ellipse cx="87" cy="177.1328" fill="#84BE84" rx="3" ry="3" style="stroke:#038048;stroke-width:1.0;"/>
            <text fill="#000000" font-family="sans-serif" font-size="14" lengthAdjust="spacing" textLength="302" x="96" y="180.4795">Constructor, Getters and Setters methods()</text>
        </g>
        <!--class audit-->
        <g id="elem_audit">
            <rect codeLine="20" fill="#F1F1F1" height="162.0781" id="audit" rx="2.5" ry="2.5" style="stroke:#181818;stroke-width:0.5;" width="328" x="130" y="248"/>
            <ellipse cx="272.75" cy="264" fill="#ADD1B2" rx="11" ry="11" style="stroke:#181818;stroke-width:1.0;"/>
            <path d="M275.7188,269.6406 Q275.1406,269.9375 274.5,270.0781 Q273.8594,270.2344 273.1563,270.2344 Q270.6563,270.2344 269.3281,268.5938 Q268.0156,266.9375 268.0156,263.8125 Q268.0156,260.6875 269.3281,259.0313 Q270.6563,257.375 273.1563,257.375 Q273.8594,257.375 274.5,257.5313 Q275.1563,257.6875 275.7188,257.9844 L275.7188,260.7031 Q275.0938,260.125 274.5,259.8594 Q273.9063,259.5781 273.2813,259.5781 Q271.9375,259.5781 271.25,260.6563 Q270.5625,261.7188 270.5625,263.8125 Q270.5625,265.9063 271.25,266.9844 Q271.9375,268.0469 273.2813,268.0469 Q273.9063,268.0469 274.5,267.7813 Q275.0938,267.5 275.7188,266.9219 L275.7188,269.6406 Z " fill="#000000"/>
            <text fill="#000000" font-family="sans-serif" font-size="14" lengthAdjust="spacing" textLength="34" x="293.25" y="268.8467">audit</text>
            <line style="stroke:#181818;stroke-width:0.5;" x1="131" x2="457" y1="280" y2="280"/>
            <rect fill="none" height="6" style="stroke:#C82930;stroke-width:1.0;" width="6" x="138" y="290.6484"/>
            <text fill="#000000" font-family="sans-serif" font-size="14" font-weight="bold" lengthAdjust="spacing" textLength="126" x="155" y="296.9951">Integer id &lt;PK&gt;</text>
            <rect fill="none" height="6" style="stroke:#C82930;stroke-width:1.0;" width="6" x="138" y="306.9453"/>
            <text fill="#000000" font-family="sans-serif" font-size="14" lengthAdjust="spacing" textLength="114" x="150" y="313.292">String username</text>
            <rect fill="none" height="6" style="stroke:#C82930;stroke-width:1.0;" width="6" x="138" y="323.2422"/>
            <text fill="#000000" font-family="sans-serif" font-size="14" lengthAdjust="spacing" textLength="121" x="150" y="329.5889">String transaction</text>
            <rect fill="none" height="6" style="stroke:#C82930;stroke-width:1.0;" width="6" x="138" y="339.5391"/>
            <text fill="#000000" font-family="sans-serif" font-size="14" lengthAdjust="spacing" textLength="230" x="150" y="345.8857">TransactionType transactionType</text>
            <rect fill="none" height="6" style="stroke:#C82930;stroke-width:1.0;" width="6" x="138" y="355.8359"/>
            <text fill="#000000" font-family="sans-serif" font-size="14" lengthAdjust="spacing" textLength="137" x="150" y="362.1826">Timestamp creation</text>
            <ellipse cx="141" cy="375.1328" fill="#000000" rx="3" ry="3" style="stroke:#000000;stroke-width:1.0;"/>
            <text fill="#000000" font-family="sans-serif" font-size="14" lengthAdjust="spacing" textLength="162" x="150" y="378.4795">username : String «FK»</text>
            <line style="stroke:#181818;stroke-width:0.5;" x1="131" x2="457" y1="385.7813" y2="385.7813"/>
            <ellipse cx="141" cy="399.4297" fill="#84BE84" rx="3" ry="3" style="stroke:#038048;stroke-width:1.0;"/>
            <text fill="#000000" font-family="sans-serif" font-size="14" lengthAdjust="spacing" textLength="302" x="150" y="402.7764">Constructor, Getters and Setters methods()</text>
        </g>
        <!--link user to Role-->
        <g id="link_user_Role">
            <path codeLine="31" d="M159.8379,193.8897 C141.6579,212.7497 128.31,227.73 112,248 C101.87,260.59 96.1794,268.4286 87.5794,281.6186 " fill="none" id="user-Role" style="stroke:#181818;stroke-width:1.0;"/>
            <line style="stroke:#181818;stroke-width:1.0;" x1="159.7341" x2="165.4938" y1="188.2338" y2="193.7859"/>
            <line style="stroke:#181818;stroke-width:1.0;" x1="157.6521" x2="163.4118" y1="190.3937" y2="195.9458"/>
            <line style="stroke:#181818;stroke-width:1.0;" x1="159.8379" x2="165.39" y1="193.8897" y2="188.13"/>
            <line style="stroke:#181818;stroke-width:1.0;" x1="88.7454" x2="82.044" y1="287.154" y2="282.7846"/>
            <line style="stroke:#181818;stroke-width:1.0;" x1="90.3839" x2="83.6825" y1="284.641" y2="280.2716"/>
            <line style="stroke:#181818;stroke-width:1.0;" x1="87.5794" x2="83.21" y1="281.6186" y2="288.32"/>
        </g>
        <!--link user to audit-->
        <g id="link_user_audit">
            <path codeLine="32" d="M260.3335,195.8228 C265.2235,215.0328 264.1149,210.6975 269.1149,230.3175 " fill="none" id="user-audit" style="stroke:#181818;stroke-width:1.0;"/>
            <line style="stroke:#181818;stroke-width:1.0;" x1="255.4704" x2="263.2231" y1="192.9331" y2="190.9596"/>
            <line style="stroke:#181818;stroke-width:1.0;" x1="256.2104" x2="263.9632" y1="195.8404" y2="193.8669"/>
            <line style="stroke:#181818;stroke-width:1.0;" x1="260.3335" x2="258.36" y1="195.8228" y2="188.07"/>
            <line style="stroke:#181818;stroke-width:1.0;" x1="271.5844" x2="279.3742" y1="240.0078" y2="246.2783"/>
            <line style="stroke:#181818;stroke-width:1.0;" x1="271.5844" x2="267.7458" y1="240.0078" y2="249.2417"/>
            <line style="stroke:#181818;stroke-width:1.0;" x1="271.5844" x2="273.56" y1="240.0078" y2="247.76"/>
            <ellipse cx="270.1027" cy="234.1936" fill="none" rx="4" ry="4" style="stroke:#181818;stroke-width:1.0;"/>
        </g>
        <!--SRC=[xLPDKzim4BthL-pDa3OCfBHJCWnJ88G9a9B91tSX2z1WowuaXsQI_FUkRVaZYKc0vjRw4CTlLxjlTvyqqiz2XbHH7qBAdkaZ7vY9nq5nPgXyz3WX5eSkbVWQQQuqJ0dXClAX7w3lb7o2qrQtynFVey55dym9OHxL6Y9qHdCTfW-2U-uSQZNeICCV4HOk7FUkJsgradbWb92FoJ99VRvggKP3pFKIABTaIOWf_45EKv-Rfm31yq1geo9c0lKPBhanSIbKkZ2m_rD7lRDRb40ZLvYjrc0KbPeo8m9PCWuBT3W9UTah_Yvx2fzhG_qGcE8q2VEn6frwdTHoej3C21uVjwzFJk8M9FERpUhrsIpfQ044KzkPsCt97-pCc4lCFMbnGuMdYPF99xV4uYbGm_q4IBiTVyRgSZQqsrdfgiirKo9Csb6oPaiPnJScxxZ4cUVfpYtwzndd2oLiZAk2bqvLw3ml1ecfhYy4v-VKh2-EJrWNEpyq5SuLvaNA0nEmvzVxaEPOm_XNHAKHPhAHrMBQdXACRqgxcjKDedlSu66y-aqPyubOyPQdH9nKTbRegwQqDoMpJl6K_28-BudxbB4WaaRtEUDYJE-JipAJNgHDuATdwTQqD-2Uj-MGPyBpOlExGkPYjKLMIradR0iX5zwLOixSrshAqhMdpwkixrEtj-t1X5oneehR6kqbv0g1eVOMEH8dQx4LqhAvKChYUk9aurx2LmNOevDKVP0h9Gf3JsnRVaz167vOBDfIAdfU86jddgNTD7Hj_TunzTAIZumzRuWTxHBJ9LsiM8iXBNcaqQkUJOSFB6oJwbsJU-NAon6hkEfZRetAYW1v1PMpIsuJsKqKsa9IoTA06N4gd_EF8VtDIw6fn_KDTt4EETQB57kYckSmnl_1fHlvX13z_-hxhrvzjtBjNNrYC9DNpyCBqQXx0sDCZKpXOA-nt_YoTz3OQIi1jyn0On_sZvg7HyslXt1tCOJOlajsBdite0DKBWTNO4NYFefBtILNT4oXZriDsz24sv3BgzPr1i2570iLI1zlsUJghbiuV3kido7b0LT81UwwfCKVQEGPNC425qjlmcZOhdydDoZx28NU12x9URodrGHjWpy0]-->
    </g>
</svg>
